<svg width="36" height="36" viewBox="0 0 36 36" fill="none" xmlns="http://www.w3.org/2000/svg">
<g clip-path="url(#clip0_223_785)">
<path d="M18 36C27.9411 36 36 27.9411 36 18C36 8.05887 27.9411 0 18 0C8.05887 0 0 8.05887 0 18C0 27.9411 8.05887 36 18 36Z" fill="#EE9975"/>
<path d="M22.564 18.5439L14.5524 23.1924C13.8725 23.5865 13 23.1093 13 22.3148V13.0178C13 12.2246 13.8713 11.7461 14.5524 12.1415L22.564 16.79C22.7187 16.8782 22.8472 17.0059 22.9366 17.1599C23.026 17.3139 23.0731 17.4888 23.0731 17.6669C23.0731 17.845 23.026 18.02 22.9366 18.1739C22.8472 18.3279 22.7187 18.4556 22.564 18.5439Z" fill="white"/>
</g>
<defs>
<clipPath id="clip0_223_785">
<rect width="36" height="36" fill="white"/>
</clipPath>
</defs>
</svg>
