<svg width="96" height="96" viewBox="0 0 96 96" fill="none" xmlns="http://www.w3.org/2000/svg">
<path d="M83.1658 15.328C82.7721 14.9062 82.3783 14.4749 81.9565 14.0624C81.544 13.6499 81.1127 13.2562 80.6908 12.853L79.4815 14.0624L78.2158 15.328L74.2033 19.3405L74.0721 19.4718L71.7283 21.8155L67.6689 25.8749L65.194 28.3499C65.6346 28.7343 66.0752 29.1093 66.4877 29.5218C66.9002 29.9343 67.2846 30.3843 67.6689 30.8155C71.8502 35.578 74.1565 41.6062 74.1565 47.9999C74.1565 54.9843 71.4377 61.5468 66.4971 66.4874C61.5564 71.428 54.9846 74.1468 48.0002 74.1468C41.6064 74.1468 35.5689 71.8405 30.8064 67.6687L30.1314 68.3437L28.3314 70.1437C33.7596 74.9812 40.6689 77.6437 48.0002 77.6437C55.9221 77.6437 63.3658 74.5593 68.9721 68.9624C74.569 63.3655 77.6627 55.9218 77.6627 48.0093C77.6627 40.678 74.9908 33.778 70.1533 28.3499L74.2127 24.2905C80.1189 30.7968 83.3627 39.1499 83.3627 48.0093C83.3627 57.4499 79.6877 66.3187 73.0127 72.9937C66.319 79.6593 57.4408 83.3343 48.0002 83.3343C39.1408 83.3343 30.7877 80.0999 24.2721 74.1937L21.7971 76.6687C28.9689 83.2405 38.2127 86.8312 48.0002 86.8312C58.3783 86.8312 68.1377 82.7905 75.469 75.4593C82.8002 68.128 86.8408 58.378 86.8408 47.9999C86.8408 38.2124 83.2408 28.978 76.6689 21.8062L80.6814 17.7937C96.8158 35.2218 96.4221 62.5218 79.4721 79.4624C71.0627 87.8718 59.8783 92.4937 47.9814 92.4937C36.6752 92.4937 26.0158 88.303 17.7658 80.6624L16.5189 81.9374L15.3096 83.1468C24.2158 91.4437 35.7564 95.9999 48.0002 95.9999C60.8252 95.9999 72.8908 91.003 81.9658 81.9374C100.275 63.6374 100.669 34.1249 83.1658 15.328Z" fill="url(#paint0_linear_429_11189)"/>
<path d="M74.0719 19.4719L74.2031 19.3406C67.0313 12.7688 57.7875 9.16875 48 9.16875C37.6219 9.16875 27.8625 13.2094 20.5313 20.5406C13.1906 27.8813 9.15001 37.6313 9.15001 48C9.15001 57.7875 12.75 67.0219 19.3219 74.1938L15.3094 78.2063C-0.824991 60.7688 -0.431241 33.4688 16.5188 16.5375C24.9281 8.12813 36.1125 3.50625 48.0094 3.50625C59.3156 3.50625 69.975 7.69688 78.225 15.3375L74.2125 19.35L78.225 15.3375L79.4906 14.0719L80.7 12.8625C71.7844 4.55625 60.2438 0 48 0C35.175 0 23.1094 4.99688 14.0344 14.0625C-4.27499 32.3625 -4.66874 61.875 12.8344 80.6719C13.2281 81.0938 13.6219 81.525 14.0438 81.9375C14.4563 82.35 14.8875 82.7438 15.3094 83.1469L16.5188 81.9375L17.7844 80.6719L21.7969 76.6594L24.2719 74.1844L28.3313 70.125L30.1313 68.325L30.8063 67.65C30.3656 67.2656 29.925 66.8906 29.5125 66.4781C29.1 66.0656 28.7156 65.6156 28.3313 65.1844C24.15 60.4219 21.8438 54.3938 21.8438 48C21.8438 41.0156 24.5625 34.4531 29.5031 29.5125C34.4438 24.5719 41.0156 21.8531 48 21.8531C54.4031 21.8531 60.4313 24.1594 65.1938 28.3313L67.6688 25.8563C62.2406 21.0188 55.3313 18.3469 48 18.3469C40.0781 18.3469 32.6344 21.4312 27.0281 27.0281C21.4219 32.625 18.3469 40.0781 18.3469 48C18.3469 55.3313 21.0188 62.2313 25.8563 67.6594L21.7969 71.7188C15.8906 65.2125 12.6469 56.8594 12.6469 48.0094C12.6469 38.5688 16.3219 29.7 23.0063 23.025C29.6906 16.35 38.5594 12.6656 48 12.6656C56.8594 12.6656 65.2125 15.9 71.7281 21.8063L67.6688 25.8656L71.7281 21.8063L74.0719 19.4719Z" fill="url(#paint1_linear_429_11189)"/>
<defs>
<linearGradient id="paint0_linear_429_11189" x1="27.1243" y1="101.596" x2="100.586" y2="28.1343" gradientUnits="userSpaceOnUse">
<stop stop-color="#58BBEA"/>
<stop offset="0.1917" stop-color="#5DB3E4"/>
<stop offset="0.4905" stop-color="#699DD4"/>
<stop offset="0.8574" stop-color="#7D79BA"/>
<stop offset="1" stop-color="#8669AE"/>
</linearGradient>
<linearGradient id="paint1_linear_429_11189" x1="-5.59343" y1="68.8742" x2="66.0822" y2="-2.8014" gradientUnits="userSpaceOnUse">
<stop stop-color="#ABCB37"/>
<stop offset="0.2693" stop-color="#A9CB38"/>
<stop offset="0.424" stop-color="#A0C93B"/>
<stop offset="0.5496" stop-color="#92C741"/>
<stop offset="0.6598" stop-color="#7EC449"/>
<stop offset="0.7598" stop-color="#65C054"/>
<stop offset="0.8524" stop-color="#45BB61"/>
<stop offset="0.9376" stop-color="#20B570"/>
<stop offset="1" stop-color="#00B07D"/>
</linearGradient>
</defs>
</svg>
