<svg width="96" height="96" viewBox="0 0 96 96" fill="none" xmlns="http://www.w3.org/2000/svg">
<path d="M48 96C74.5097 96 96 74.5097 96 48C96 21.4903 74.5097 0 48 0C21.4903 0 0 21.4903 0 48C0 74.5097 21.4903 96 48 96Z" fill="url(#paint0_linear_437_11359)"/>
<path d="M78.3093 45.0656L64.7515 31.5078L64.7269 31.4832L64.6733 31.4363C64.5855 31.357 64.4937 31.2823 64.3982 31.2126C64.3311 31.1589 64.264 31.1075 64.1924 31.0605C64.1611 31.0382 64.1298 31.0203 64.0963 31.0001C63.3233 30.4939 62.3883 30.2968 61.4768 30.4481C60.5653 30.5993 59.744 31.0878 59.1759 31.8165L38.0901 52.9045V34.1178C38.0901 33.1302 37.6978 32.1831 36.9994 31.4847C36.3011 30.7864 35.3539 30.394 34.3663 30.394C33.3787 30.394 32.4315 30.7864 31.7332 31.4847C31.0348 32.1831 30.6425 33.1302 30.6425 34.1178V52.9045L22.9444 45.2065C22.2408 44.5355 21.3026 44.1663 20.3304 44.1779C19.3582 44.1895 18.4291 44.5808 17.7416 45.2683C17.054 45.9558 16.6627 46.885 16.6511 47.8572C16.6396 48.8294 17.0087 49.7676 17.6797 50.4712L31.7339 64.5254C31.8223 64.6149 31.9156 64.6993 32.0135 64.7782C32.1074 64.8542 32.2058 64.928 32.3042 65.0018C32.812 65.3309 33.3924 65.5312 33.995 65.5856H34.0107C34.1315 65.5967 34.2522 65.6034 34.373 65.6034H34.4289C34.5303 65.6034 34.631 65.599 34.7309 65.59H34.8047C34.9008 65.5788 34.997 65.5676 35.0909 65.5475H35.1334C35.2385 65.5252 35.3437 65.5006 35.4465 65.4692H35.4644C35.5767 65.4354 35.6872 65.3959 35.7954 65.3507C35.9497 65.2869 36.0992 65.2122 36.2427 65.1271L36.3277 65.0779C36.4684 64.9919 36.6029 64.8962 36.7303 64.7916L36.7683 64.758C36.8466 64.6909 36.9249 64.6239 36.992 64.5478L58.373 43.1533V61.8819C58.373 62.8695 58.7653 63.8167 59.4637 64.515C60.162 65.2134 61.1092 65.6057 62.0968 65.6057C63.0844 65.6057 64.0316 65.2134 64.7299 64.515C65.4283 63.8167 65.8206 62.8695 65.8206 61.8819V43.0952L73.0445 50.3325C73.7458 51.0171 74.6886 51.3976 75.6685 51.3916C76.6485 51.3855 77.5866 50.9935 78.2794 50.3004C78.9721 49.6073 79.3638 48.6691 79.3694 47.6891C79.375 46.7092 78.9941 45.7665 78.3093 45.0656Z" fill="white"/>
<defs>
<linearGradient id="paint0_linear_437_11359" x1="6.42326" y1="23.9955" x2="89.5767" y2="72.0022" gradientUnits="userSpaceOnUse">
<stop offset="0.13" stop-color="#348BED"/>
<stop offset="0.31" stop-color="#2B80E8"/>
<stop offset="0.64" stop-color="#1461DB"/>
<stop offset="0.72" stop-color="#0E57D7"/>
</linearGradient>
</defs>
</svg>
