<svg width="158" height="114" viewBox="0 0 158 114" fill="none" xmlns="http://www.w3.org/2000/svg">
<path d="M27.1405 14.3745C28.6057 13.8955 29.4075 12.3124 28.9312 10.8386C28.455 9.36484 26.8811 8.55842 25.4158 9.03744C23.9505 9.51646 23.1488 11.0995 23.625 12.5733C24.1013 14.0471 25.6752 14.8535 27.1405 14.3745Z" fill="#35CD81" fill-opacity="0.1"/>
<path d="M33.2298 5.21911C34.2262 4.89337 34.7714 3.81688 34.4475 2.8147C34.1237 1.81252 33.0534 1.26416 32.057 1.58989C31.0607 1.91563 30.5155 2.99211 30.8393 3.99429C31.1632 4.99647 32.2334 5.54484 33.2298 5.21911Z" fill="#35CD81" fill-opacity="0.1"/>
<path d="M124.687 14.8505C126.415 13.2614 126.536 10.5635 124.956 8.82464C123.376 7.08575 120.694 6.96429 118.965 8.55337C117.236 10.1425 117.116 12.8403 118.696 14.5792C120.275 16.3181 122.958 16.4396 124.687 14.8505Z" fill="#35CD81" fill-opacity="0.1"/>
<path d="M138.231 7.0742C138.959 6.40511 139.01 5.26917 138.344 4.53701C137.679 3.80484 136.55 3.7537 135.822 4.42279C135.094 5.09188 135.043 6.22782 135.708 6.95998C136.374 7.69215 137.503 7.74329 138.231 7.0742Z" fill="#35CD81" fill-opacity="0.1"/>
<path d="M32.0424 106.776C32.7704 106.107 32.8212 104.971 32.156 104.239C31.4908 103.507 30.3614 103.456 29.6335 104.125C28.9055 104.794 28.8547 105.93 29.5199 106.662C30.1851 107.394 31.3145 107.445 32.0424 106.776Z" fill="#35CD81" fill-opacity="0.1"/>
<path d="M77.0658 112.711C107.696 112.711 132.527 87.7357 132.527 56.9271C132.527 26.1184 107.696 1.14307 77.0658 1.14307C46.4354 1.14307 21.6045 26.1184 21.6045 56.9271C21.6045 87.7357 46.4354 112.711 77.0658 112.711Z" fill="#35CD81" fill-opacity="0.2" stroke="#35CD81" stroke-width="2" stroke-miterlimit="10"/>
<path d="M63.2989 4.13059V73.0421C63.2989 74.5849 62.0485 75.8338 60.5039 75.8338H3.79499C2.25039 75.8338 1 74.5849 1 73.0421V4.13059C1 2.5878 2.25039 1.33887 3.79499 1.33887H60.5039C62.0485 1.33887 63.2989 2.5878 63.2989 4.13059Z" fill="white" stroke="#35CD81" stroke-width="2" stroke-miterlimit="10"/>
<path d="M63.2989 4.07886V10.5683H1V4.07886C1 2.56466 2.25039 1.33887 3.79499 1.33887H60.5039C62.0485 1.33887 63.2989 2.56466 63.2989 4.07886Z" fill="#35CD81" fill-opacity="0.2" stroke="#35CD81" stroke-width="2" stroke-miterlimit="10" stroke-linejoin="round"/>
<path d="M5.12003 7.60187C5.93923 7.60187 6.60333 6.93777 6.60333 6.11856C6.60333 5.29935 5.93923 4.63525 5.12003 4.63525C4.30082 4.63525 3.63672 5.29935 3.63672 6.11856C3.63672 6.93777 4.30082 7.60187 5.12003 7.60187Z" fill="#35CD81"/>
<path d="M9.73526 7.60187C10.5545 7.60187 11.2186 6.93777 11.2186 6.11856C11.2186 5.29935 10.5545 4.63525 9.73526 4.63525C8.91605 4.63525 8.25195 5.29935 8.25195 6.11856C8.25195 6.93777 8.91605 7.60187 9.73526 7.60187Z" fill="#35CD81"/>
<path d="M14.3495 7.60187C15.1687 7.60187 15.8328 6.93777 15.8328 6.11856C15.8328 5.29935 15.1687 4.63525 14.3495 4.63525C13.5303 4.63525 12.8662 5.29935 12.8662 6.11856C12.8662 6.93777 13.5303 7.60187 14.3495 7.60187Z" fill="#35CD81"/>
<path opacity="0.3" d="M55.5986 61.6619H48.8472C48.1867 61.6619 47.5996 61.1482 47.5996 60.4144V24.5288C47.5996 23.8683 48.1133 23.2812 48.8472 23.2812H55.5986C56.2591 23.2812 56.8462 23.7949 56.8462 24.5288V60.4144C56.8462 61.0748 56.3325 61.6619 55.5986 61.6619Z" fill="#35CD81" fill-opacity="0.2" stroke="#35CD81" stroke-width="2" stroke-miterlimit="10" stroke-linejoin="round"/>
<path opacity="0.3" d="M55.5986 61.6621H48.8472C48.1867 61.6621 47.5996 61.1484 47.5996 60.4145V37.4448C47.5996 36.7844 48.1133 36.1973 48.8472 36.1973H55.5986C56.2591 36.1973 56.8462 36.711 56.8462 37.4448V60.4145C56.8462 61.075 56.3325 61.6621 55.5986 61.6621Z" fill="#35CD81" fill-opacity="0.2" stroke="#35CD81" stroke-width="2" stroke-miterlimit="10" stroke-linejoin="round"/>
<path d="M42.169 61.6619H35.4175C34.757 61.6619 34.1699 61.1482 34.1699 60.4144V24.5288C34.1699 23.8683 34.6836 23.2812 35.4175 23.2812H42.169C42.8294 23.2812 43.4165 23.7949 43.4165 24.5288V60.4144C43.4165 61.0748 42.8294 61.6619 42.169 61.6619Z" fill="#35CD81" fill-opacity="0.2"/>
<path d="M42.169 61.6618H35.4175C34.757 61.6618 34.1699 61.1481 34.1699 60.4143V47.0581C34.1699 46.3976 34.6836 45.8105 35.4175 45.8105H42.169C42.8294 45.8105 43.4165 46.3242 43.4165 47.0581V60.4143C43.4165 61.0748 42.8294 61.6618 42.169 61.6618Z" fill="#35CD81"/>
<path d="M28.7393 61.6619H21.9878C21.3273 61.6619 20.7402 61.1482 20.7402 60.4144V24.5288C20.7402 23.8683 21.2539 23.2812 21.9878 23.2812H28.7393C29.3997 23.2812 29.9868 23.7949 29.9868 24.5288V60.4144C29.9134 61.0748 29.3997 61.6619 28.7393 61.6619Z" fill="#35CD81" fill-opacity="0.2"/>
<path d="M28.7393 61.6616H21.9878C21.3273 61.6616 20.7402 61.1479 20.7402 60.4141V32.6743C20.7402 32.0138 21.2539 31.4268 21.9878 31.4268H28.7393C29.3997 31.4268 29.9868 31.9405 29.9868 32.6743V60.4141C29.9134 61.0745 29.3997 61.6616 28.7393 61.6616Z" fill="#35CD81"/>
<path d="M15.2363 61.6619H8.48486C7.82439 61.6619 7.2373 61.1482 7.2373 60.4144V24.5288C7.2373 23.8683 7.751 23.2812 8.48486 23.2812H15.2363C15.8968 23.2812 16.4839 23.7949 16.4839 24.5288V60.4144C16.4839 61.0748 15.8968 61.6619 15.2363 61.6619Z" fill="#35CD81" fill-opacity="0.2"/>
<path d="M15.2363 61.6616H8.48486C7.82439 61.6616 7.2373 61.1479 7.2373 60.414V47.9385C7.2373 47.278 7.751 46.6909 8.48486 46.6909H15.2363C15.8968 46.6909 16.4839 47.2046 16.4839 47.9385V60.414C16.4839 61.0745 15.8968 61.6616 15.2363 61.6616Z" fill="#35CD81"/>
<path d="M156.252 46.1001V109.523C156.252 110.943 155.108 112.093 153.694 112.093H101.786C100.372 112.093 99.2275 110.943 99.2275 109.523V46.1001C99.2275 44.6802 100.372 43.5308 101.786 43.5308H153.694C155.108 43.5308 156.252 44.6802 156.252 46.1001Z" fill="white" stroke="#35CD81" stroke-width="2" stroke-miterlimit="10"/>
<path d="M147.753 79.7896H116.742V85.4662H147.753V79.7896Z" fill="white" stroke="#35CD81" stroke-opacity="0.3" stroke-width="2" stroke-miterlimit="10"/>
<path d="M116.589 85.4561H108.787V103.512H116.589V85.4561Z" fill="#35CD81" fill-opacity="0.2" stroke="#35CD81" stroke-opacity="0.3" stroke-width="2" stroke-miterlimit="10"/>
<path d="M147.743 79.7896H116.589V103.522H147.743V79.7896Z" fill="white" stroke="#35CD81" stroke-opacity="0.3" stroke-width="2" stroke-miterlimit="10"/>
<path d="M140.065 103.512H108.787V85.4561H147.753" stroke="#35CD81" stroke-opacity="0.3" stroke-width="2" stroke-miterlimit="10"/>
<path d="M147.753 91.6455H108.787" stroke="#35CD81" stroke-opacity="0.3" stroke-width="2" stroke-miterlimit="10"/>
<path d="M147.753 97.5791H108.787" stroke="#35CD81" stroke-opacity="0.3" stroke-width="2" stroke-miterlimit="10"/>
<path d="M124.451 79.7896V103.512" stroke="#35CD81" stroke-opacity="0.3" stroke-width="2" stroke-miterlimit="10"/>
<path d="M132.232 79.7896V103.512" stroke="#35CD81" stroke-opacity="0.3" stroke-width="2" stroke-miterlimit="10"/>
<path d="M140.014 79.7896V103.512" stroke="#35CD81" stroke-opacity="0.3" stroke-width="2" stroke-miterlimit="10"/>
<path fill-rule="evenodd" clip-rule="evenodd" d="M147.027 58.9364C147.571 59.6774 147.418 60.7239 146.685 61.2738L134.49 70.4235C133.915 70.8545 133.132 70.863 132.548 70.4446L128.345 67.4298L120.774 72.2259C120.244 72.5616 119.572 72.5662 119.038 72.2378L116.752 70.8328L111.296 74.1711C110.515 74.6489 109.499 74.3963 109.026 73.6069C108.554 72.8175 108.803 71.7902 109.584 71.3124L115.898 67.4491C116.425 67.1266 117.086 67.1273 117.613 67.4509L119.884 68.8466L127.524 64.0062C128.09 63.6477 128.813 63.6687 129.358 64.0593L133.483 67.0176L144.715 58.5905C145.448 58.0405 146.483 58.1954 147.027 58.9364Z" fill="#35CD81" fill-opacity="0.8"/>
<path d="M156.252 46.075V52.101H99.2275V46.075C99.2275 44.669 100.372 43.5308 101.786 43.5308H153.694C155.108 43.5308 156.252 44.669 156.252 46.075Z" fill="#35CD81" fill-opacity="0.2" stroke="#35CD81" stroke-width="2" stroke-miterlimit="10" stroke-linejoin="round"/>
<path opacity="0.2" d="M112.742 43.8604V97.4466C112.742 98.9826 111.492 100.226 109.947 100.226H99.2275V46.4297C99.2275 45.0098 100.372 43.8604 101.786 43.8604H112.742Z" fill="#35CD81" fill-opacity="0.8"/>
<path d="M109.116 26.2032V94.8098C109.116 96.3458 107.866 97.5892 106.321 97.5892H49.6124C48.0678 97.5892 46.8174 96.3458 46.8174 94.8098V26.2032C46.8174 24.6672 48.0678 23.4238 49.6124 23.4238H106.321C107.866 23.4238 109.116 24.6672 109.116 26.2032Z" fill="white" stroke="#35CD81" stroke-opacity="0.6" stroke-width="2" stroke-miterlimit="10"/>
<path d="M109.116 26.1638V32.6533H46.8174V26.1638C46.8174 24.6496 48.0678 23.4238 49.6124 23.4238H106.321C107.866 23.4238 109.116 24.6496 109.116 26.1638Z" fill="#35CD81" fill-opacity="0.2" stroke="#35CD81" stroke-opacity="0.6" stroke-width="2" stroke-miterlimit="10" stroke-linejoin="round"/>
<path d="M50.9384 29.6863C51.7576 29.6863 52.4217 29.0222 52.4217 28.203C52.4217 27.3838 51.7576 26.7197 50.9384 26.7197C50.1192 26.7197 49.4551 27.3838 49.4551 28.203C49.4551 29.0222 50.1192 29.6863 50.9384 29.6863Z" fill="#35CD81"/>
<path d="M55.5526 29.6863C56.3719 29.6863 57.036 29.0222 57.036 28.203C57.036 27.3838 56.3719 26.7197 55.5526 26.7197C54.7334 26.7197 54.0693 27.3838 54.0693 28.203C54.0693 29.0222 54.7334 29.6863 55.5526 29.6863Z" fill="#35CD81"/>
<path d="M60.1679 29.6863C60.9871 29.6863 61.6512 29.0222 61.6512 28.203C61.6512 27.3838 60.9871 26.7197 60.1679 26.7197C59.3487 26.7197 58.6846 27.3838 58.6846 28.203C58.6846 29.0222 59.3487 29.6863 60.1679 29.6863Z" fill="#35CD81"/>
<path opacity="0.7" d="M86.4939 62.9825L83.4851 61.5148C82.1642 63.0559 80.1828 64.0099 78.0546 64.0099C74.0918 64.0099 70.8628 60.7809 70.8628 56.8181C70.8628 56.3044 70.9362 55.8641 71.0096 55.3504L68.0008 53.8827L61.5428 50.7271C60.809 52.7819 60.3687 55.0569 60.5154 57.4786C60.8824 66.6518 68.3677 74.0637 77.4675 74.3573C83.9988 74.5774 89.7963 71.2017 92.9519 66.1381L86.4939 62.9825ZM77.9812 39.2056C71.67 39.2056 66.0927 42.5079 63.0105 47.5715L69.4685 50.7271L72.4773 52.1948C73.6515 50.8739 75.2659 49.9199 77.1006 49.6997L77.5409 46.3974L78.4215 39.279C78.2747 39.2056 78.128 39.2056 77.9812 39.2056ZM81.944 39.6459L81.0634 46.7643L80.6231 50.0666C83.265 51.094 85.173 53.7359 85.173 56.7447C85.173 57.2584 85.0996 57.7721 85.0262 58.2124L88.035 59.6802L94.493 62.8357C95.2268 60.9277 95.5937 58.8729 95.5937 56.7447V56.6713C95.5204 48.4522 89.7229 41.4805 81.944 39.6459Z" fill="#35CD81"/>
<path d="M77.9814 39.2056C71.6702 39.2056 66.0929 42.5079 63.0107 47.5715L69.4687 50.7271L72.4775 52.1948C73.6517 50.8739 75.2661 49.9199 77.1008 49.6997L77.5411 46.3974L78.4217 39.279C78.275 39.2056 78.1282 39.2056 77.9814 39.2056Z" fill="#35CD81" fill-opacity="0.2"/>
<path d="M81.944 39.646L81.0634 46.7644L80.623 50.0668C83.2649 51.0942 85.173 53.736 85.173 56.7448C85.173 57.2585 85.0996 57.7722 85.0262 58.2126L88.035 59.6803L94.4929 62.8359C95.2268 60.9278 95.5937 58.873 95.5937 56.7448V56.6715C95.5203 48.4523 89.7229 41.4806 81.944 39.646Z" fill="#35CD81" fill-opacity="0.8"/>
<path opacity="0.1" d="M72.4776 52.1949L69.4688 50.7272C71.3034 48.2321 74.1654 46.5442 77.4678 46.3975L77.0275 49.6998C75.2662 49.92 73.6517 50.8006 72.4776 52.1949Z" fill="#35CD81"/>
<path opacity="0.1" d="M83.4854 61.5149L86.4942 62.9826C84.5862 65.6245 81.504 67.3124 77.9814 67.3124C72.184 67.3124 67.4873 62.6157 67.4873 56.8182C67.4873 55.7908 67.6341 54.8368 67.9276 53.8828L70.9364 55.3505C70.863 55.7908 70.7897 56.3045 70.7897 56.8182C70.7897 60.7811 74.0186 64.01 77.9814 64.01C80.183 64.01 82.1644 63.056 83.4854 61.5149Z" fill="#35CD81"/>
<path opacity="0.1" d="M88.4753 56.8183C88.4753 57.8457 88.3285 58.8731 88.035 59.7538L85.0262 58.286C85.0996 57.7723 85.173 57.332 85.173 56.8183C85.173 53.8095 83.2649 51.1676 80.623 50.1402L81.0634 46.8379C85.3197 48.0854 88.4753 52.1217 88.4753 56.8183Z" fill="#35CD81"/>
<path d="M94.1191 79.7896H60.8271C60.0078 79.7896 59.3438 80.4537 59.3438 81.2729C59.3438 82.0921 60.0078 82.7562 60.8271 82.7562H94.1191C94.9383 82.7562 95.6024 82.0921 95.6024 81.2729C95.6024 80.4537 94.9383 79.7896 94.1191 79.7896Z" fill="#35CD81"/>
<path d="M75.6601 87.041H60.8271C60.0078 87.041 59.3438 87.7051 59.3438 88.5243C59.3438 89.3435 60.0078 90.0076 60.8271 90.0076H75.6601C76.4793 90.0076 77.1434 89.3435 77.1434 88.5243C77.1434 87.7051 76.4793 87.041 75.6601 87.041Z" fill="#35CD81"/>
</svg>
