<svg width="80" height="80" viewBox="0 0 80 80" fill="none" xmlns="http://www.w3.org/2000/svg">
<g clip-path="url(#clip0_49_21995)">
<path d="M69.3333 0H10.6667C4.77563 0 0 4.77563 0 10.6667V69.3333C0 75.2244 4.77563 80 10.6667 80H69.3333C75.2244 80 80 75.2244 80 69.3333V10.6667C80 4.77563 75.2244 0 69.3333 0Z" fill="white"/>
<path d="M18.3709 33.0273L15.9673 35.431C15.2977 36.0663 14.7654 36.8389 14.4049 37.6802C14.0443 38.5215 13.8555 39.4486 13.8555 40.3757C13.8555 41.3029 14.0443 42.2128 14.4049 43.0541C14.7654 43.8954 15.2977 44.668 15.9673 45.3033L35.3341 64.8762C35.7977 65.3397 36.3299 65.7344 36.9137 66.0266V42.3159L18.3709 33.0273Z" fill="#3D89F5"/>
<path d="M58.9775 32.9163L61.3807 35.32C62.0506 35.9553 62.5828 36.7278 62.9434 37.5692C63.3039 38.4105 63.4927 39.3376 63.4927 40.2476C63.4927 41.1575 63.3039 42.0846 62.9434 42.9259C62.5828 43.7673 62.0506 44.5398 61.3807 45.1751L42.0141 64.7482C41.5505 65.2116 41.0183 65.6063 40.4346 65.8986V42.2049L58.9775 32.9163Z" fill="#1656B9"/>
<path d="M57.3964 28.1171L45.2751 15.9614C44.6399 15.2918 43.8673 14.7767 43.0088 14.4161C42.1504 14.0556 41.2576 13.8667 40.3304 13.8667C39.4033 13.8667 38.4933 14.0556 37.652 14.4161C36.8107 14.7767 36.0381 15.3089 35.3857 15.9614L23.2471 28.1171L40.2789 36.6159L57.3964 28.1171Z" fill="#85B5F8"/>

</g>
<defs>
<clipPath id="clip0_49_21995">
<rect width="80" height="80" fill="white"/>
</clipPath>
</defs>
</svg>
