<svg width="80" height="80" viewBox="0 0 80 80" fill="none" xmlns="http://www.w3.org/2000/svg">
<g clip-path="url(#clip0_49_22022)">
<path d="M69.3333 0H10.6667C4.77563 0 0 4.77563 0 10.6667V69.3333C0 75.2244 4.77563 80 10.6667 80H69.3333C75.2244 80 80 75.2244 80 69.3333V10.6667C80 4.77563 75.2244 0 69.3333 0Z" fill="white"/>
<path d="M55.3691 31.6804C55.3024 31.5613 55.2112 31.4601 55.1141 31.3641C53.6672 29.9331 50.7297 23.3806 56.0005 21.8388C56.2171 21.7755 56.4544 21.793 56.6571 21.8922C57.2715 22.1936 57.7931 22.5897 58.32 23.154C62.5051 27.6334 65.0667 33.649 65.0667 40.2629C65.0667 53.7493 54.4165 64.7477 41.0675 65.3072C40.4789 65.3317 40 64.8523 40 64.2629V58.9296C40 58.3403 40.4788 57.8661 41.0668 57.8309C50.2903 57.2795 57.6 49.6249 57.6 40.2629C57.6 37.1466 56.7899 34.2194 55.3691 31.6804Z" fill="url(#paint0_linear_49_22022)"/>
<path d="M52.9389 37.1871L55.3213 31.5006C55.3234 31.5048 55.3261 31.5089 55.3282 31.513C55.7015 29.5376 57.4365 28.0434 59.5207 28.0434C60.7634 28.0434 61.8823 28.5749 62.6621 29.4227C61.5538 27.1152 60.1021 25.0036 58.3741 23.1539C57.7591 22.4955 57.1517 22.066 56.3949 21.7489C53.6781 20.6108 50.5531 21.8905 49.4149 24.6072L45.4577 34.0528C45.1163 34.8679 45.5001 35.8054 46.3152 36.1468L50.8449 38.0446C51.6599 38.386 52.5975 38.0021 52.9389 37.1871Z" fill="url(#paint1_linear_49_22022)"/>
<path d="M24.631 48.0493C24.6978 48.1685 24.7891 48.2696 24.8861 48.3656C26.3331 49.7966 29.2706 56.3488 23.9998 57.8912C23.7834 57.9542 23.5459 57.9366 23.3434 57.8374C22.7286 57.536 22.2074 57.1403 21.6802 56.576C17.4951 52.0963 14.9336 46.0807 14.9336 39.4669C14.9336 25.9805 25.584 14.9817 38.9327 14.4225C39.5213 14.3978 40.0003 14.8777 40.0003 15.4668V20.8001C40.0003 21.3893 39.5215 21.8634 38.9334 21.8986C29.71 22.4501 22.4003 30.1048 22.4003 39.4669C22.4003 42.5832 23.2102 45.5103 24.631 48.0493Z" fill="url(#paint2_linear_49_22022)"/>
<path d="M27.0609 42.5426L24.6786 48.229C24.6763 48.2249 24.6739 48.2207 24.6715 48.2166C24.2982 50.1921 22.5632 51.6862 20.4792 51.6862C19.2364 51.6862 18.1177 51.1548 17.3379 50.3069C18.4463 52.6144 19.8976 54.7259 21.6257 56.5755C22.2409 57.2341 22.848 57.6635 23.605 57.9808C26.3218 59.1189 29.4468 57.8395 30.5849 55.1227L34.5422 45.6768C34.8836 44.8618 34.4997 43.9243 33.6847 43.5828L29.1549 41.6851C28.3399 41.3437 27.4024 41.7276 27.0609 42.5426Z" fill="url(#paint3_linear_49_22022)"/>

</g>
<defs>
<linearGradient id="paint0_linear_49_22022" x1="52.5333" y1="21.3336" x2="52.5333" y2="65.3296" gradientUnits="userSpaceOnUse">
<stop stop-color="#286BE0"/>
<stop offset="1" stop-color="#97B8FF"/>
</linearGradient>
<linearGradient id="paint1_linear_49_22022" x1="50.6663" y1="21.8666" x2="53.9975" y2="38.1692" gradientUnits="userSpaceOnUse">
<stop offset="0.0670532" stop-color="#6490F1"/>
<stop offset="1" stop-color="#6490F1"/>
</linearGradient>
<linearGradient id="paint2_linear_49_22022" x1="27.4669" y1="58.3963" x2="27.4669" y2="14.3999" gradientUnits="userSpaceOnUse">
<stop stop-color="#286BE0"/>
<stop offset="1" stop-color="#97B8FF"/>
</linearGradient>
<linearGradient id="paint3_linear_49_22022" x1="29.3335" y1="57.8629" x2="26.0024" y2="41.5604" gradientUnits="userSpaceOnUse">
<stop offset="0.0670532" stop-color="#6490F1"/>
<stop offset="1" stop-color="#6490F1"/>
</linearGradient>
<clipPath id="clip0_49_22022">
<rect width="80" height="80" fill="white"/>
</clipPath>
</defs>
</svg>
