<svg width="80" height="80" viewBox="0 0 80 80" fill="none" xmlns="http://www.w3.org/2000/svg">
<g clip-path="url(#clip0_49_21991)">
<path d="M69.0066 0H10.596C4.744 0 0 4.744 0 10.596V69.0066C0 74.8586 4.744 79.6026 10.596 79.6026H69.0066C74.8586 79.6026 79.6026 74.8586 79.6026 69.0066V10.596C79.6026 4.744 74.8586 0 69.0066 0Z" fill="white"/>
<path fill-rule="evenodd" clip-rule="evenodd" d="M36.8324 55.9142C38.2392 55.9142 39.5441 55.6143 40.7485 54.8636C41.9545 54.2135 43.0587 53.3129 43.962 52.1623C44.8654 51.0616 45.5695 49.761 46.0714 48.3603C46.5733 46.9094 46.8242 45.4585 46.8242 43.9078C46.8242 42.0067 46.5231 40.5559 45.8707 39.4552C45.2167 38.3546 43.9118 37.9045 42.2055 37.9045C41.6535 37.9045 41.0998 37.9543 40.1965 38.1546C39.2931 38.3546 38.5403 38.8049 37.7875 39.4052L33.9216 55.7144C35.1261 55.9142 36.3807 55.9142 36.8324 55.9142ZM44.6201 30.438C46.5251 30.438 48.1782 30.7886 49.5823 31.4896C50.9848 32.1407 52.0868 33.042 53.0385 34.2439C53.9418 35.3959 54.593 36.748 55.0438 38.3002C55.4947 39.8528 55.695 41.5054 55.695 43.3081C55.695 46.0625 55.1943 48.6166 54.1421 51.0704C53.0889 53.4739 51.7362 55.6774 49.983 57.4305C48.2282 59.2329 46.1745 60.6856 43.7686 61.6869C41.3642 62.7385 38.808 63.2392 36.0514 63.2392C35.7008 63.2392 35.0496 63.2392 34.148 63.1894C33.2448 63.1894 32.1929 63.0893 31.0909 62.9388C29.9388 62.7385 28.6849 62.5383 27.4326 62.2379C26.1303 61.9375 24.9265 61.4866 23.7744 60.9356L34.0979 17.7181L43.3178 16.2658L39.6596 31.5897C40.461 31.2393 41.2139 30.9388 42.0154 30.7885C42.8669 30.5382 43.7185 30.438 44.6201 30.438Z" fill="#2364E6"/>

</g>
<defs>

</defs>
</svg>
