<svg width="80" height="80" viewBox="0 0 80 80" fill="none" xmlns="http://www.w3.org/2000/svg">
<g clip-path="url(#clip0_49_22061)">
<path d="M69.3333 0H10.6667C4.77563 0 0 4.77563 0 10.6667V69.3333C0 75.2244 4.77563 80 10.6667 80H69.3333C75.2244 80 80 75.2244 80 69.3333V10.6667C80 4.77563 75.2244 0 69.3333 0Z" fill="white"/>
<path d="M39.7449 17.0667C47.4115 23.4697 56.2035 23.0748 58.7155 23.0748C58.1662 59.4906 53.9795 52.2694 39.7449 62.4805C25.5102 52.2694 21.3497 59.4906 20.7998 23.0748C23.2857 23.0748 32.0777 23.4697 39.7449 17.0667Z" stroke="#3375BB" stroke-width="9" stroke-miterlimit="10" stroke-linecap="round" stroke-linejoin="round"/>

</g>
<defs>
<clipPath id="clip0_49_22061">
<rect width="80" height="80" fill="white"/>
</clipPath>
</defs>
</svg>
