<svg width="256" height="256" viewBox="0 0 256 256" fill="none" xmlns="http://www.w3.org/2000/svg">
<rect width="256" height="256" rx="24" fill="#F82A91"/>
<path d="M76.12 219C70.488 219 66.136 217.549 63.064 214.648C60.1627 211.576 58.712 207.224 58.712 201.592V55.928C58.712 50.296 60.1627 46.0293 63.064 43.128C66.136 40.056 70.488 38.52 76.12 38.52H137.56C150.189 38.52 160.941 40.3973 169.816 44.152C178.691 47.9067 185.432 53.2827 190.04 60.28C194.819 67.2773 197.208 75.64 197.208 85.368C197.208 96.2907 194.051 105.507 187.736 113.016C181.421 120.525 172.803 125.56 161.88 128.12V124.28C174.509 126.157 184.323 130.936 191.32 138.616C198.317 146.296 201.816 156.28 201.816 168.568C201.816 184.611 196.355 197.069 185.432 205.944C174.68 214.648 159.661 219 140.376 219H76.12ZM90.2 194.168H136.28C147.885 194.168 156.419 191.949 161.88 187.512C167.341 182.904 170.072 176.077 170.072 167.032C170.072 157.816 167.341 150.989 161.88 146.552C156.419 142.115 147.885 139.896 136.28 139.896H90.2V194.168ZM90.2 115.064H131.928C143.192 115.064 151.555 112.931 157.016 108.664C162.648 104.227 165.464 97.7413 165.464 89.208C165.464 80.6747 162.648 74.2747 157.016 70.008C151.555 65.5707 143.192 63.352 131.928 63.352H90.2V115.064Z" fill="#EDFFF6"/>
</svg>
