<svg width="139" height="105" viewBox="0 0 139 105" fill="none" xmlns="http://www.w3.org/2000/svg">
<path d="M71.0072 103.041C99.1288 103.041 121.927 80.2428 121.927 52.0207C121.927 23.7986 99.0284 1 71.0072 1C42.8855 1 20.0869 23.7986 20.0869 52.0207C20.0869 80.2428 42.8855 103.041 71.0072 103.041Z" fill="#F1F3F9" stroke="#D6DCE8" stroke-width="2" stroke-miterlimit="10"/>
<path d="M128.392 35.8557C130.666 35.8557 132.51 34.0121 132.51 31.7379C132.51 29.4637 130.666 27.6201 128.392 27.6201C126.118 27.6201 124.274 29.4637 124.274 31.7379C124.274 34.0121 126.118 35.8557 128.392 35.8557Z" fill="#F1F3F9"/>
<path d="M134.418 19.786C135.971 19.786 137.23 18.5269 137.23 16.9738C137.23 15.4207 135.971 14.1616 134.418 14.1616C132.865 14.1616 131.605 15.4207 131.605 16.9738C131.605 18.5269 132.865 19.786 134.418 19.786Z" fill="#F1F3F9"/>
<path d="M22.3969 18.576C23.95 18.576 25.209 17.3169 25.209 15.7638C25.209 14.2107 23.95 12.9517 22.3969 12.9517C20.8438 12.9517 19.5847 14.2107 19.5847 15.7638C19.5847 17.3169 20.8438 18.576 22.3969 18.576Z" fill="#F1F3F9"/>
<path d="M5.22259 72.8109C8.10695 72.8109 10.4452 70.4727 10.4452 67.5883C10.4452 64.704 8.10695 62.3657 5.22259 62.3657C2.33823 62.3657 0 64.704 0 67.5883C0 70.4727 2.33823 72.8109 5.22259 72.8109Z" fill="#F1F3F9"/>
<path d="M71.0072 103.041C99.1288 103.041 121.927 80.2428 121.927 52.0207C121.927 23.7986 99.0284 1 71.0072 1C42.8855 1 20.0869 23.7986 20.0869 52.0207C20.0869 80.2428 42.8855 103.041 71.0072 103.041Z" stroke="#D6DCE8" stroke-width="2" stroke-miterlimit="10"/>
<path d="M125.653 17.8693V86.2205C125.653 89.2131 123.229 91.667 120.237 91.667H21.9893C18.9967 91.667 16.5427 89.243 16.5427 86.2205V17.8693C16.5427 14.8767 18.9667 12.4526 21.9893 12.4526H120.237C123.229 12.4526 125.653 14.8767 125.653 17.8693Z" fill="white" stroke="#D6DCE8" stroke-width="2" stroke-miterlimit="10" stroke-linejoin="round"/>
<path d="M125.653 17.8693V23.5253H16.5427V17.8693C16.5427 14.8767 18.9667 12.4526 21.9893 12.4526H120.237C123.229 12.4526 125.653 14.8767 125.653 17.8693Z" fill="#F1F3F9" stroke="#D6DCE8" stroke-width="2" stroke-miterlimit="10" stroke-linejoin="round"/>
<path d="M22.438 19.455C23.2643 19.455 23.9343 18.7851 23.9343 17.9587C23.9343 17.1323 23.2643 16.4624 22.438 16.4624C21.6116 16.4624 20.9417 17.1323 20.9417 17.9587C20.9417 18.7851 21.6116 19.455 22.438 19.455Z" fill="#D6DCE8"/>
<path d="M26.927 19.455C27.7534 19.455 28.4233 18.7851 28.4233 17.9587C28.4233 17.1323 27.7534 16.4624 26.927 16.4624C26.1006 16.4624 25.4307 17.1323 25.4307 17.9587C25.4307 18.7851 26.1006 19.455 26.927 19.455Z" fill="#D6DCE8"/>
<path d="M31.386 19.455C32.2123 19.455 32.8823 18.7851 32.8823 17.9587C32.8823 17.1323 32.2123 16.4624 31.386 16.4624C30.5596 16.4624 29.8896 17.1323 29.8896 17.9587C29.8896 18.7851 30.5596 19.455 31.386 19.455Z" fill="#D6DCE8"/>
<path d="M55.6561 32.3237H26.1489V61.4965H55.6561V32.3237Z" fill="#F1F3F9" stroke="#D6DCE8" stroke-width="2" stroke-miterlimit="10" stroke-linejoin="round"/>
<path d="M96.0752 32.1768H116.436" stroke="#D6DCE8" stroke-width="4" stroke-miterlimit="10" stroke-linecap="round" stroke-linejoin="round"/>
<path d="M64.2622 32.1768H87.1676" stroke="#D6DCE8" stroke-width="4" stroke-miterlimit="10" stroke-linecap="round" stroke-linejoin="round"/>
<path d="M64.2622 41.7207H116.436" stroke="#D6DCE8" stroke-width="4" stroke-miterlimit="10" stroke-linecap="round" stroke-linejoin="round"/>
<path d="M85.2588 51.2646H116.436" stroke="#D6DCE8" stroke-width="4" stroke-miterlimit="10" stroke-linecap="round" stroke-linejoin="round"/>
<path d="M64.2622 51.2646H77.6237" stroke="#D6DCE8" stroke-width="4" stroke-miterlimit="10" stroke-linecap="round" stroke-linejoin="round"/>
<path d="M64.2622 60.8086H92.8939" stroke="#D6DCE8" stroke-width="4" stroke-miterlimit="10" stroke-linecap="round" stroke-linejoin="round"/>
<path d="M87.1675 70.3525H116.435" stroke="#D6DCE8" stroke-width="4" stroke-miterlimit="10" stroke-linecap="round" stroke-linejoin="round"/>
<path d="M26.0864 70.3525H78.2598" stroke="#D6DCE8" stroke-width="4" stroke-miterlimit="10" stroke-linecap="round" stroke-linejoin="round"/>
<path d="M55.3545 79.8965H93.5301" stroke="#D6DCE8" stroke-width="4" stroke-miterlimit="10" stroke-linecap="round" stroke-linejoin="round"/>
<path d="M26.0864 79.8965H46.4468" stroke="#D6DCE8" stroke-width="4" stroke-miterlimit="10" stroke-linecap="round" stroke-linejoin="round"/>
<path d="M133.326 100.323H104.635C102.363 100.323 100.529 98.4897 100.529 96.2172V40.1007C100.529 37.8282 102.363 35.9946 104.635 35.9946H133.326C135.599 35.9946 137.432 37.8282 137.432 40.1007V96.2172C137.432 98.4897 135.599 100.323 133.326 100.323Z" fill="#D6DCE8" stroke="#AAB2C5" stroke-width="2" stroke-miterlimit="10"/>
<path d="M132.37 91.2071H105.591C104.738 91.2071 104.067 90.5357 104.067 89.6835V41.1594C104.067 40.3072 104.738 39.6357 105.591 39.6357H132.37C133.223 39.6357 133.894 40.3072 133.894 41.1594V89.6835C133.894 90.5357 133.223 91.2071 132.37 91.2071Z" fill="white" stroke="#AAB2C5" stroke-width="2" stroke-miterlimit="10"/>
<path d="M118.994 97.5603C120.177 97.5603 121.137 96.6006 121.137 95.4169C121.137 94.2331 120.177 93.2734 118.994 93.2734C117.81 93.2734 116.85 94.2331 116.85 95.4169C116.85 96.6006 117.81 97.5603 118.994 97.5603Z" fill="#AAB2C5"/>
</svg>
