<svg width="406" height="438" viewBox="0 0 406 438" fill="none" xmlns="http://www.w3.org/2000/svg">
<path d="M207.56 376.418C299.369 376.418 373.687 302.422 373.687 210.935C373.687 119.448 299.45 45.3716 207.56 45.3716C116.073 45.3716 41.5127 119.367 41.5127 210.854C41.5127 302.341 115.75 376.418 207.56 376.418Z" fill="#F1F3F9" stroke="#D6DCE8" stroke-width="2" stroke-miterlimit="10" stroke-linejoin="round"/>
<path d="M388.922 400.357C423.018 365.052 398.272 305.162 348.538 305.162C325.888 305.162 306.462 318.543 297.515 337.807C289.616 338.291 282.281 340.79 266.401 351.268L263.822 294.522H244.316L242.704 329.827C236.336 324.911 230.21 325.475 225.938 325.797L226.986 325.636L225.293 290.734H192.809L190.794 332.246C185.313 328.054 183.62 330.069 181.927 330.069C178.622 330.069 175.479 330.956 172.819 332.407L171.045 294.442H151.539L150.169 324.508C141.302 319.268 130.904 316.205 119.861 316.205C106.481 316.205 94.1479 320.638 84.1529 328.054C40.7066 307.419 -7.01171 347.48 5.88514 393.909L37.0794 413.899C36.3539 414.382 35.6285 414.866 34.903 415.35L37.0794 413.899C27.0037 423.33 56.9083 396.085 65.0494 399.793C65.6943 401.244 66.3391 402.614 67.0646 403.984L65.6943 400.196C66.5809 400.921 67.0646 402.13 67.0646 403.984C67.0646 403.984 67.0646 404.065 67.1452 404.065C59.0846 404.468 51.5077 406.403 44.5757 409.707L70.5306 405.032C92.6971 409.788 214.25 426.473 214.492 428.569L212.718 425.264C213.444 425.345 214.25 425.425 215.056 425.506C219.006 431.31 224.809 435.823 231.58 438C226.099 435.179 221.504 430.987 218.2 425.828C244.88 428.408 279.621 426.634 292.356 425.264C304.044 427.36 316.296 424.7 326.291 417.445C328.387 415.914 330.402 414.141 332.256 412.206C344.589 412.125 367.239 415.672 366.916 410.191L389.163 414.141C382.876 411.239 376.105 409.304 368.851 408.659L388.922 400.357ZM324.518 414.221C324.599 413.979 324.679 413.818 324.921 413.576L324.518 414.221Z" fill="white"/>
<path d="M172.819 332.407L171.045 294.522H151.539L150.169 324.507" fill="white"/>
<path d="M172.819 332.407L171.045 294.522H151.539L150.169 324.507" stroke="#AAB2C5" stroke-width="2" stroke-miterlimit="10" stroke-linecap="round" stroke-linejoin="round"/>
<path d="M266.482 352.719L263.822 294.522H244.316L242.704 329.908" fill="white"/>
<path d="M266.482 352.719L263.822 294.522H244.316L242.704 329.908" stroke="#AAB2C5" stroke-width="2" stroke-miterlimit="10" stroke-linecap="round" stroke-linejoin="round"/>
<path d="M226.986 325.555L225.212 290.734H192.809L190.794 331.681L190.875 332.326" fill="white"/>
<path d="M226.986 325.555L225.212 290.734H192.809L190.794 331.681L190.875 332.326" stroke="#AAB2C5" stroke-width="2" stroke-miterlimit="10" stroke-linecap="round" stroke-linejoin="round"/>
<path d="M51.5884 384.72C54.4096 383.753 57.392 383.108 60.5356 382.785" stroke="#AAB2C5" stroke-width="2" stroke-miterlimit="10" stroke-linecap="round" stroke-linejoin="round"/>
<path d="M221.827 278.321H195.227L189.746 282.029C188.617 282.835 187.973 284.044 187.973 285.414V289.041H229.887V285.575C229.887 284.124 229.162 282.835 227.953 282.109L221.827 278.321Z" fill="white" stroke="#AAB2C5" stroke-width="2" stroke-miterlimit="10" stroke-linecap="round" stroke-linejoin="round"/>
<path d="M231.661 290.734C231.661 291.621 230.935 292.346 230.049 292.346H187.489C186.602 292.346 185.877 291.621 185.877 290.734C185.877 289.848 186.602 289.122 187.489 289.122H230.049C230.935 289.122 231.661 289.848 231.661 290.734Z" fill="white" stroke="#AAB2C5" stroke-width="2" stroke-miterlimit="10" stroke-linecap="round" stroke-linejoin="round"/>
<path d="M139.045 53.5126H138.4C137.352 53.5126 136.546 52.7066 136.546 51.6587V51.0139C136.546 50.2078 135.901 49.563 135.095 49.563C134.289 49.563 133.644 50.2078 133.644 51.0139V51.6587C133.644 52.7066 132.838 53.5126 131.791 53.5126H131.146C130.34 53.5126 129.695 54.1575 129.695 54.9635C129.695 55.7696 130.34 56.4144 131.146 56.4144H131.791C132.838 56.4144 133.644 57.2205 133.644 58.2684V58.9132C133.644 59.7193 134.289 60.3641 135.095 60.3641C135.901 60.3641 136.546 59.7193 136.546 58.9132V58.2684C136.546 57.2205 137.352 56.4144 138.4 56.4144H139.045C139.851 56.4144 140.496 55.7696 140.496 54.9635C140.496 54.2381 139.851 53.5126 139.045 53.5126Z" fill="#D6DDE8"/>
<path d="M97.9366 27.7994H97.3724C96.5663 27.7994 95.8409 27.1546 95.8409 26.2679V25.7037C95.8409 25.0589 95.2767 24.4946 94.6318 24.4946C93.987 24.4946 93.4227 25.0589 93.4227 25.7037V26.2679C93.4227 27.074 92.7779 27.7994 91.8912 27.7994H91.327C90.6822 27.7994 90.1179 28.3637 90.1179 29.0085C90.1179 29.6534 90.6822 30.2176 91.327 30.2176H91.8912C92.6973 30.2176 93.4227 30.8624 93.4227 31.7491V32.3133C93.4227 32.9582 93.987 33.5224 94.6318 33.5224C95.2767 33.5224 95.8409 32.9582 95.8409 32.3133V31.7491C95.8409 30.9431 96.4857 30.2176 97.3724 30.2176H97.9366C98.5815 30.2176 99.1457 29.6534 99.1457 29.0085C99.1457 28.3637 98.5815 27.7994 97.9366 27.7994Z" fill="#D6DDE8"/>
<path d="M47.8805 198.28H47.3162C46.5102 198.28 45.7847 197.635 45.7847 196.748V196.184C45.7847 195.539 45.2205 194.975 44.5757 194.975C43.9308 194.975 43.3666 195.539 43.3666 196.184V196.748C43.3666 197.554 42.7217 198.28 41.8351 198.28H41.2708C40.626 198.28 40.0618 198.844 40.0618 199.489C40.0618 200.134 40.626 200.698 41.2708 200.698H41.8351C42.6411 200.698 43.3666 201.343 43.3666 202.23V202.794C43.3666 203.439 43.9308 204.003 44.5757 204.003C45.2205 204.003 45.7847 203.439 45.7847 202.794V202.23C45.7847 201.424 46.4296 200.698 47.3162 200.698H47.8805C48.5253 200.698 49.0896 200.134 49.0896 199.489C49.0896 198.764 48.5253 198.28 47.8805 198.28Z" fill="#D6DDE8"/>
<path d="M180.557 3.69858H179.993C179.186 3.69858 178.461 3.05374 178.461 2.16708V1.68344C178.461 1.0386 177.897 0.474365 177.252 0.474365C176.607 0.474365 176.043 1.0386 176.043 1.68344V2.24768C176.043 3.05374 175.398 3.77918 174.511 3.77918H173.947C173.302 3.77918 172.738 4.34342 172.738 4.98826C172.738 5.6331 173.302 6.19734 173.947 6.19734H174.511C175.317 6.19734 176.043 6.84218 176.043 7.72884V8.29308C176.043 8.93792 176.607 9.50216 177.252 9.50216C177.897 9.50216 178.461 8.93792 178.461 8.29308V7.56763C178.461 6.76158 179.106 6.03613 179.993 6.03613H180.557C181.202 6.03613 181.766 5.47189 181.766 4.82705C181.766 4.26281 181.282 3.69858 180.557 3.69858Z" fill="#D6DDE8"/>
<path d="M392.307 99.2965H391.743C390.937 99.2965 390.211 98.6517 390.211 97.765V97.2008C390.211 96.5559 389.647 95.9917 389.002 95.9917C388.357 95.9917 387.793 96.5559 387.793 97.2008V97.765C387.793 98.5711 387.148 99.2965 386.262 99.2965H385.697C385.053 99.2965 384.488 99.8608 384.488 100.506C384.488 101.15 385.053 101.715 385.697 101.715H386.262C387.068 101.715 387.793 102.36 387.793 103.246V103.81C387.793 104.455 388.357 105.019 389.002 105.019C389.647 105.019 390.211 104.455 390.211 103.81V103.246C390.211 102.44 390.856 101.715 391.743 101.715H392.307C392.952 101.715 393.516 101.15 393.516 100.506C393.516 99.8608 392.952 99.2965 392.307 99.2965Z" fill="#D6DDE8"/>
<path d="M347.571 274.21H347.007C346.201 274.21 345.475 273.565 345.475 272.679V272.114C345.475 271.47 344.911 270.905 344.266 270.905C343.621 270.905 343.057 271.47 343.057 272.114V272.679C343.057 273.485 342.412 274.21 341.526 274.21H341.123C340.478 274.21 339.914 274.774 339.914 275.419C339.914 276.064 340.478 276.628 341.123 276.628H341.687C342.493 276.628 343.218 277.273 343.218 278.16V278.724C343.218 279.369 343.783 279.933 344.427 279.933C345.072 279.933 345.637 279.369 345.637 278.724V278.16C345.637 277.354 346.281 276.628 347.168 276.628H347.732C348.377 276.628 348.941 276.064 348.941 275.419C348.78 274.774 348.216 274.21 347.571 274.21Z" fill="#D6DDE8"/>
<path d="M42.5606 286.462H42.077C41.2709 286.462 40.5455 285.817 40.5455 284.931V284.366C40.5455 283.721 39.9812 283.157 39.3364 283.157C38.6916 283.157 38.1273 283.721 38.1273 284.366V284.931C38.1273 285.737 37.4825 286.462 36.5958 286.462H36.0316C35.3867 286.462 34.8225 287.026 34.8225 287.671C34.8225 288.316 35.3867 288.88 36.0316 288.88H36.5958C37.4019 288.88 38.1273 289.525 38.1273 290.412V290.976C38.1273 291.621 38.6916 292.185 39.3364 292.185C39.9812 292.185 40.5455 291.621 40.5455 290.976V290.412C40.5455 289.606 41.1903 288.88 42.077 288.88H42.6412C43.2861 288.88 43.8503 288.316 43.8503 287.671C43.7697 287.026 43.2055 286.462 42.5606 286.462Z" fill="#D6DDE8"/>
<path d="M296.145 142.904H295.5C294.452 142.904 293.646 142.098 293.646 141.05V140.405C293.646 139.599 293.001 138.954 292.195 138.954C291.389 138.954 290.744 139.599 290.744 140.405V141.05C290.744 142.098 289.938 142.904 288.89 142.904H288.246C287.44 142.904 286.795 143.549 286.795 144.355C286.795 145.161 287.44 145.806 288.246 145.806H288.89C289.938 145.806 290.744 146.612 290.744 147.66V148.305C290.744 149.111 291.389 149.755 292.195 149.755C293.001 149.755 293.646 149.111 293.646 148.305V147.66C293.646 146.612 294.452 145.806 295.5 145.806H296.145C296.951 145.806 297.596 145.161 297.596 144.355C297.596 143.549 296.951 142.904 296.145 142.904Z" fill="#D6DDE8"/>
<path d="M314.442 253.897H313.797C312.75 253.897 311.944 253.091 311.944 252.043V251.399C311.944 250.593 311.299 249.948 310.493 249.948C309.687 249.948 309.042 250.593 309.042 251.399V252.043C309.042 253.091 308.236 253.897 307.188 253.897H306.462C305.656 253.897 305.011 254.542 305.011 255.348C305.011 256.154 305.656 256.799 306.462 256.799H307.107C308.155 256.799 308.961 257.605 308.961 258.653V259.298C308.961 260.104 309.606 260.749 310.412 260.749C311.218 260.749 311.863 260.104 311.863 259.298V258.653C311.863 257.605 312.669 256.799 313.717 256.799H314.362C315.168 256.799 315.813 256.154 315.813 255.348C315.893 254.542 315.248 253.897 314.442 253.897Z" fill="#D6DDE8"/>
<path d="M385.052 140.566H384.649C384.005 140.566 383.521 140.083 383.521 139.438V139.115C383.521 138.632 383.118 138.229 382.634 138.229C382.151 138.229 381.748 138.632 381.748 139.115V139.518C381.748 140.163 381.264 140.647 380.619 140.647H380.216C379.732 140.647 379.329 141.05 379.329 141.534C379.329 142.017 379.732 142.42 380.216 142.42H380.619C381.264 142.42 381.748 142.904 381.748 143.549V143.952C381.748 144.435 382.151 144.838 382.634 144.838C383.118 144.838 383.521 144.435 383.521 143.952V143.549C383.521 142.904 384.005 142.42 384.649 142.42H385.052C385.536 142.42 385.939 142.017 385.939 141.534C385.939 140.969 385.536 140.566 385.052 140.566Z" fill="#D6DDE8"/>
<path d="M347.329 160.556H347.007C346.523 160.556 346.12 160.153 346.12 159.67V159.347C346.12 158.944 345.798 158.622 345.395 158.622C344.992 158.622 344.669 158.944 344.669 159.347V159.67C344.669 160.153 344.266 160.556 343.783 160.556H343.46C343.057 160.556 342.735 160.879 342.735 161.282C342.735 161.685 343.057 162.007 343.46 162.007H343.783C344.266 162.007 344.669 162.41 344.669 162.894V163.216C344.669 163.619 344.992 163.942 345.395 163.942C345.798 163.942 346.12 163.619 346.12 163.216V162.894C346.12 162.41 346.523 162.007 347.007 162.007H347.329C347.732 162.007 348.055 161.685 348.055 161.282C348.055 160.879 347.732 160.556 347.329 160.556Z" fill="#D6DDE8"/>
<path d="M270.109 56.9787H269.787C269.303 56.9787 268.9 56.5757 268.9 56.0921V55.7696C268.9 55.3666 268.578 55.0442 268.175 55.0442C267.772 55.0442 267.449 55.3666 267.449 55.7696V56.0921C267.449 56.5757 267.046 56.9787 266.563 56.9787H266.24C265.837 56.9787 265.515 57.3011 265.515 57.7042C265.515 58.1072 265.837 58.4296 266.24 58.4296H266.563C267.046 58.4296 267.449 58.8326 267.449 59.3163V59.6387C267.449 60.0417 267.772 60.3641 268.175 60.3641C268.578 60.3641 268.9 60.0417 268.9 59.6387V59.3163C268.9 58.8326 269.303 58.4296 269.787 58.4296H270.109C270.512 58.4296 270.835 58.1072 270.835 57.7042C270.754 57.3011 270.512 56.9787 270.109 56.9787Z" fill="#D6DDE8"/>
<path d="M349.989 54.3188H349.667C349.183 54.3188 348.78 53.9158 348.78 53.4321V53.1097C348.78 52.7067 348.458 52.3843 348.055 52.3843C347.652 52.3843 347.329 52.7067 347.329 53.1097V53.4321C347.329 53.9158 346.926 54.3188 346.443 54.3188H346.12C345.717 54.3188 345.395 54.6412 345.395 55.0442C345.395 55.4473 345.717 55.7697 346.12 55.7697H346.443C346.926 55.7697 347.329 56.1727 347.329 56.6564V56.9788C347.329 57.3818 347.652 57.7042 348.055 57.7042C348.458 57.7042 348.78 57.3818 348.78 56.9788V56.6564C348.78 56.1727 349.183 55.7697 349.667 55.7697H349.989C350.392 55.7697 350.715 55.4473 350.715 55.0442C350.715 54.6412 350.392 54.3188 349.989 54.3188Z" fill="#D6DDE8"/>
<path d="M26.4395 121.382H26.0365C25.3916 121.382 24.8274 120.818 24.8274 120.173V119.77C24.8274 119.206 24.4243 118.803 23.8601 118.803C23.2959 118.803 22.8928 119.206 22.8928 119.77V120.173C22.8928 120.818 22.3286 121.382 21.6838 121.382H21.2807C20.7165 121.382 20.3135 121.785 20.3135 122.35C20.3135 122.914 20.7165 123.317 21.2807 123.317H21.6838C22.3286 123.317 22.8928 123.881 22.8928 124.526V124.929C22.8928 125.493 23.2959 125.896 23.8601 125.896C24.4243 125.896 24.8274 125.493 24.8274 124.929V124.526C24.8274 123.881 25.3916 123.317 26.0365 123.317H26.4395C27.0037 123.317 27.4067 122.914 27.4067 122.35C27.4067 121.866 26.9231 121.382 26.4395 121.382Z" fill="#D6DDE8"/>
<path d="M104.868 237.373H104.465C103.821 237.373 103.256 236.809 103.256 236.164V235.761C103.256 235.197 102.853 234.794 102.289 234.794C101.725 234.794 101.322 235.197 101.322 235.761V236.164C101.322 236.809 100.758 237.373 100.113 237.373H99.7097C99.1455 237.373 98.7424 237.776 98.7424 238.341C98.7424 238.905 99.1455 239.308 99.7097 239.308H100.113C100.758 239.308 101.322 239.872 101.322 240.517V240.92C101.322 241.484 101.725 241.887 102.289 241.887C102.853 241.887 103.256 241.484 103.256 240.92V240.517C103.256 239.872 103.821 239.308 104.465 239.308H104.868C105.433 239.308 105.836 238.905 105.836 238.341C105.836 237.776 105.352 237.373 104.868 237.373Z" fill="#D6DDE8"/>
<path d="M400.69 277.515H400.287C399.642 277.515 399.078 276.951 399.078 276.306V275.903C399.078 275.339 398.675 274.936 398.111 274.936C397.546 274.936 397.143 275.339 397.143 275.903V276.306C397.143 276.951 396.579 277.515 395.934 277.515H395.531C394.967 277.515 394.564 277.918 394.564 278.482C394.564 279.046 394.967 279.449 395.531 279.449H395.934C396.579 279.449 397.143 280.014 397.143 280.659V281.062C397.143 281.626 397.546 282.029 398.111 282.029C398.675 282.029 399.078 281.626 399.078 281.062V280.659C399.078 280.014 399.642 279.449 400.287 279.449H400.69C401.254 279.449 401.657 279.046 401.657 278.482C401.657 277.999 401.174 277.515 400.69 277.515Z" fill="#D6DDE8"/>
<path d="M18.4594 70.0367H18.137C17.5728 70.0367 17.1698 69.6336 17.1698 69.0694V68.747C17.1698 68.3439 16.8473 67.9409 16.3637 67.9409C15.9607 67.9409 15.5577 68.2633 15.5577 68.747V69.0694C15.5577 69.6336 15.1546 70.0367 14.5904 70.0367H14.268C13.8649 70.0367 13.4619 70.3591 13.4619 70.8427C13.4619 71.2457 13.7843 71.6488 14.268 71.6488H14.671C15.2352 71.6488 15.6383 72.0518 15.6383 72.616V72.9385C15.6383 73.3415 15.9607 73.7445 16.4443 73.7445C16.8473 73.7445 17.2504 73.4221 17.2504 72.9385V72.616C17.2504 72.0518 17.6534 71.6488 18.2176 71.6488H18.54C18.9431 71.6488 19.3461 71.3263 19.3461 70.8427C19.2655 70.3591 18.8625 70.0367 18.4594 70.0367Z" fill="#D6DDE8"/>
<path d="M48.8476 33.6836H48.5252C47.961 33.6836 47.5579 33.2806 47.5579 32.7164V32.3939C47.5579 31.9909 47.2355 31.5879 46.7519 31.5879C46.3489 31.5879 45.9458 31.9103 45.9458 32.3939V32.7164C45.9458 33.2806 45.5428 33.6836 44.9786 33.6836H44.6562C44.2531 33.6836 43.8501 34.0061 43.8501 34.4897C43.8501 34.8927 44.1725 35.2957 44.6562 35.2957H44.9786C45.5428 35.2957 45.9458 35.6988 45.9458 36.263V36.5854C45.9458 36.9884 46.2683 37.3915 46.7519 37.3915C47.1549 37.3915 47.5579 37.0691 47.5579 36.5854V36.263C47.5579 35.6988 47.961 35.2957 48.5252 35.2957H48.8476C49.2507 35.2957 49.6537 34.9733 49.6537 34.4897C49.6537 34.0061 49.3313 33.6836 48.8476 33.6836Z" fill="#D6DDE8"/>
<path d="M5.88519 191.751H5.56276C4.99853 191.751 4.5955 191.348 4.5955 190.784V190.461C4.5955 190.058 4.27308 189.655 3.78945 189.655C3.38642 189.655 2.98339 189.977 2.98339 190.461V190.784C2.98339 191.348 2.58037 191.751 2.01613 191.751H1.77431C1.37129 191.751 0.968262 192.073 0.968262 192.557C0.968262 192.96 1.29068 193.363 1.77431 193.363H2.09674C2.66097 193.363 3.064 193.766 3.064 194.33V194.653C3.064 195.056 3.38642 195.459 3.87005 195.459C4.27308 195.459 4.67611 195.136 4.67611 194.653V194.33C4.67611 193.766 5.07913 193.363 5.64337 193.363H5.96579C6.36882 193.363 6.77184 193.04 6.77184 192.557C6.69124 192.073 6.36882 191.751 5.88519 191.751Z" fill="#D6DDE8"/>
<path d="M124.214 94.8631H123.891C123.327 94.8631 122.924 94.46 122.924 93.8958V93.5734C122.924 93.1704 122.601 92.7673 122.118 92.7673C121.715 92.7673 121.312 93.0898 121.312 93.5734V93.8958C121.312 94.46 120.909 94.8631 120.345 94.8631H120.022C119.619 94.8631 119.216 95.1855 119.216 95.6691C119.216 96.0722 119.538 96.4752 120.022 96.4752H120.345C120.909 96.4752 121.312 96.8782 121.312 97.4424V97.7649C121.312 98.1679 121.634 98.5709 122.118 98.5709C122.521 98.5709 122.924 98.2485 122.924 97.7649V97.4424C122.924 96.8782 123.327 96.4752 123.891 96.4752H124.214C124.617 96.4752 125.02 96.1528 125.02 95.6691C125.02 95.1855 124.617 94.8631 124.214 94.8631Z" fill="#D6DDE8"/>
<path d="M102.531 188.849H102.209C101.644 188.849 101.241 188.446 101.241 187.882V187.559C101.241 187.156 100.919 186.753 100.435 186.753C100.032 186.753 99.6292 187.076 99.6292 187.559V187.882C99.6292 188.446 99.2262 188.849 98.6619 188.849H98.3395C97.9365 188.849 97.5334 189.171 97.5334 189.655C97.5334 190.058 97.8559 190.461 98.3395 190.461H98.6619C99.2262 190.461 99.6292 190.864 99.6292 191.428V191.751C99.6292 192.154 99.9516 192.557 100.435 192.557C100.838 192.557 101.241 192.234 101.241 191.751V191.428C101.241 190.864 101.644 190.461 102.209 190.461H102.531C102.934 190.461 103.337 190.139 103.337 189.655C103.256 189.171 102.934 188.849 102.531 188.849Z" fill="#D6DDE8"/>
<path d="M241.656 22.7214C239.157 22.7214 237.142 20.7063 237.142 18.2075C237.142 15.7087 239.157 13.6936 241.656 13.6936C244.155 13.6936 246.17 15.7087 246.17 18.2075C246.17 20.7063 244.074 22.7214 241.656 22.7214ZM241.656 16.1924C240.527 16.1924 239.56 17.079 239.56 18.2881C239.56 19.4972 240.447 20.3838 241.656 20.3838C242.784 20.3838 243.751 19.4972 243.751 18.2881C243.751 17.079 242.784 16.1924 241.656 16.1924Z" fill="#D6DDE8"/>
<path d="M84.1528 72.3742C81.654 72.3742 79.6389 70.3591 79.6389 67.8603C79.6389 65.3616 81.654 63.3464 84.1528 63.3464C86.6516 63.3464 88.6667 65.3616 88.6667 67.8603C88.6667 70.3591 86.571 72.3742 84.1528 72.3742ZM84.1528 65.8452C83.0243 65.8452 82.0571 66.7319 82.0571 67.9409C82.0571 69.15 82.9437 70.0367 84.1528 70.0367C85.3619 70.0367 86.2486 69.15 86.2486 67.9409C86.2486 66.7319 85.2813 65.8452 84.1528 65.8452Z" fill="#D6DDE8"/>
<path d="M278.492 36.7468C276.719 36.7468 275.188 35.2959 275.188 33.442C275.188 31.5881 276.638 30.1372 278.492 30.1372C280.266 30.1372 281.797 31.5881 281.797 33.442C281.797 35.2959 280.266 36.7468 278.492 36.7468ZM278.492 31.9105C277.686 31.9105 276.961 32.5554 276.961 33.442C276.961 34.3287 277.606 34.9735 278.492 34.9735C279.298 34.9735 280.024 34.3287 280.024 33.442C280.024 32.5554 279.298 31.9105 278.492 31.9105Z" fill="#D6DDE8"/>
<path d="M302.674 298.794C300.9 298.794 299.369 297.344 299.369 295.49C299.369 293.716 300.82 292.185 302.674 292.185C304.447 292.185 305.979 293.636 305.979 295.49C305.898 297.344 304.447 298.794 302.674 298.794ZM302.674 294.039C301.868 294.039 301.142 294.684 301.142 295.57C301.142 296.376 301.787 297.102 302.674 297.102C303.48 297.102 304.205 296.457 304.205 295.57C304.205 294.684 303.48 294.039 302.674 294.039Z" fill="#D6DDE8"/>
<path d="M173.947 294.603H148.073C147.509 294.603 147.106 294.2 147.106 293.636C147.106 293.071 147.509 292.668 148.073 292.668H173.947C174.512 292.668 174.915 293.071 174.915 293.636C174.915 294.2 174.431 294.603 173.947 294.603Z" fill="#AAB2C5" stroke="#AAB2C5" stroke-width="2" stroke-miterlimit="10" stroke-linecap="round" stroke-linejoin="round"/>
<path d="M172.657 288.396C173.383 288.88 173.867 289.686 173.867 290.492V292.588H148.395V290.412C148.395 289.605 148.798 288.799 149.443 288.316L152.748 286.059H152.829V276.95H169.03V286.22L172.657 288.396Z" fill="#D6DCE8" stroke="#AAB2C5" stroke-width="2" stroke-miterlimit="10" stroke-linecap="round" stroke-linejoin="round"/>
<path opacity="0.3" d="M173.786 290.573V292.668H166.29V290.573C166.29 289.686 166.129 288.88 165.806 288.477L164.355 286.22V276.95H169.03V286.22L172.658 288.477C173.383 288.88 173.786 289.686 173.786 290.573Z" fill="#AAB2C5"/>
<path d="M162.662 71.6489C161.695 70.7622 160.164 70.7622 159.196 71.6489C154.441 75.6791 147.025 89.9463 147.025 105.1V283.157C147.025 284.85 148.395 286.14 150.007 286.14H160.889H171.851C173.544 286.14 174.834 284.769 174.834 283.157V105.1C174.914 89.9463 167.418 75.7598 162.662 71.6489Z" fill="#F1F3FA" stroke="#AAB2C5" stroke-width="2" stroke-miterlimit="10"/>
<path opacity="0.3" d="M174.914 105.1V283.157C174.914 284.85 173.544 286.22 171.851 286.22H164.113C164.597 286.22 165 284.85 165 283.157V105.1C165 89.9462 162.824 75.7596 161.453 71.6488C161.292 71.2457 161.131 71.0039 160.97 71.0039C161.615 71.0039 162.179 71.2457 162.662 71.6488C167.418 75.7596 174.914 89.9462 174.914 105.1Z" fill="#AAB2C5"/>
<path d="M160.97 71.0039C160.809 71.0039 160.728 71.2457 160.647 71.6488C159.68 75.7596 158.149 89.9462 158.149 105.1V283.157C158.149 284.85 158.391 286.22 158.794 286.22H153.554C152.426 286.22 151.539 284.85 151.539 283.157V105.1C151.539 89.9462 156.617 75.7596 159.841 71.6488C160.083 71.2457 160.567 71.0039 160.97 71.0039Z" fill="white"/>
<path d="M211.67 25.7038C209.333 24.5753 205.867 24.5753 203.529 25.7038C192.486 31.2655 174.834 57.3011 174.834 78.0166C174.834 101.473 174.834 275.338 174.834 275.338H207.559H240.285C240.285 275.338 240.285 101.473 240.285 78.0166C240.285 57.3817 222.713 31.3461 211.67 25.7038Z" fill="#D6DCE8" stroke="#AAB2C5" stroke-width="2" stroke-miterlimit="10" stroke-linecap="round" stroke-linejoin="round"/>
<path opacity="0.5" d="M240.285 78.0972C240.285 101.553 240.285 275.419 240.285 275.419H221.182C221.182 275.419 221.182 101.553 221.182 78.0972C221.182 57.3816 213.847 31.3461 209.252 25.7844C208.769 25.2201 208.124 24.8977 207.56 24.8977C209.01 24.8977 210.461 25.2201 211.59 25.7844C222.713 31.3461 240.285 57.3816 240.285 78.0972Z" fill="#AAB2C5"/>
<path d="M207.559 24.8977C207.076 24.8977 206.592 25.2201 206.27 25.7844C202.643 31.3461 197 57.3816 197 78.0972C197 101.553 197 275.419 197 275.419H183.458C183.458 275.419 183.458 101.553 183.458 78.0972C183.458 57.3816 196.436 31.3461 204.658 25.7844C205.464 25.1395 206.512 24.8977 207.559 24.8977Z" fill="white"/>
<path d="M211.67 25.7038C209.333 24.5753 205.867 24.5753 203.529 25.7038C192.486 31.2655 174.834 57.3011 174.834 78.0166C174.834 101.473 174.834 275.338 174.834 275.338H207.559H240.285C240.285 275.338 240.285 101.473 240.285 78.0166C240.285 57.3817 222.713 31.3461 211.67 25.7038Z" stroke="#AAB2C5" stroke-width="2" stroke-miterlimit="10" stroke-linecap="round" stroke-linejoin="round"/>
<path d="M192.728 93.0898H240.285" stroke="#AAB2C5" stroke-width="2" stroke-miterlimit="10" stroke-linecap="round" stroke-linejoin="round"/>
<path d="M187.811 93.0898H188.053" stroke="#AAB2C5" stroke-width="2" stroke-miterlimit="10" stroke-linecap="round" stroke-linejoin="round"/>
<path d="M174.834 93.0898H183.055" stroke="#AAB2C5" stroke-width="2" stroke-miterlimit="10" stroke-linecap="round" stroke-linejoin="round"/>
<path d="M190.391 128.073H240.285" stroke="#AAB2C5" stroke-width="2" stroke-miterlimit="10" stroke-linecap="round" stroke-linejoin="round"/>
<path d="M174.834 128.073H183.378" stroke="#AAB2C5" stroke-width="2" stroke-miterlimit="10" stroke-linecap="round" stroke-linejoin="round"/>
<path d="M161.695 107.518H174.914" stroke="#AAB2C5" stroke-width="2" stroke-miterlimit="10" stroke-linecap="round" stroke-linejoin="round"/>
<path d="M156.214 107.518H157.101" stroke="#AAB2C5" stroke-width="2" stroke-miterlimit="10" stroke-linecap="round" stroke-linejoin="round"/>
<path d="M147.025 107.518H152.748" stroke="#AAB2C5" stroke-width="2" stroke-miterlimit="10" stroke-linecap="round" stroke-linejoin="round"/>
<path d="M157.584 144.355H174.915" stroke="#AAB2C5" stroke-width="2" stroke-miterlimit="10" stroke-linecap="round" stroke-linejoin="round"/>
<path d="M152.264 144.355H152.99" stroke="#AAB2C5" stroke-width="2" stroke-miterlimit="10" stroke-linecap="round" stroke-linejoin="round"/>
<path d="M147.025 172.244H174.914" stroke="#AAB2C5" stroke-width="2" stroke-miterlimit="10" stroke-linecap="round" stroke-linejoin="round"/>
<path d="M162.662 71.6489C161.695 70.7622 160.164 70.7622 159.196 71.6489C154.441 75.6791 147.025 89.9463 147.025 105.1V283.157C147.025 284.85 148.395 286.14 150.007 286.14H160.889H171.851C173.544 286.14 174.834 284.769 174.834 283.157V105.1C174.914 89.9463 167.418 75.7598 162.662 71.6489Z" stroke="#AAB2C5" stroke-width="2" stroke-miterlimit="10"/>
<path d="M267.208 294.603H241.333C240.769 294.603 240.366 294.2 240.366 293.636C240.366 293.071 240.769 292.668 241.333 292.668H267.208C267.772 292.668 268.175 293.071 268.175 293.636C268.175 294.2 267.691 294.603 267.208 294.603Z" fill="#AAB2C5" stroke="#AAB2C5" stroke-width="2" stroke-miterlimit="10" stroke-linecap="round" stroke-linejoin="round"/>
<path d="M265.918 288.396C266.643 288.88 267.127 289.686 267.127 290.492V292.588H241.656V290.412C241.656 289.605 242.059 288.799 242.704 288.316L246.008 286.059H246.089V276.95H262.291V286.22L265.918 288.396Z" fill="#D6DCE8" stroke="#AAB2C5" stroke-width="2" stroke-miterlimit="10" stroke-linecap="round" stroke-linejoin="round"/>
<path opacity="0.3" d="M267.046 290.573V292.668H260.356V290.573C260.356 289.686 260.114 288.88 259.792 288.477L258.099 286.22V276.95H262.291V286.22L265.918 288.477C266.643 288.88 267.046 289.686 267.046 290.573Z" fill="#AAB2C5"/>
<path d="M255.923 71.6489C254.956 70.7622 253.424 70.7622 252.457 71.6489C247.701 75.6791 240.285 89.9463 240.285 105.1V283.157C240.285 284.85 241.656 286.14 243.268 286.14H254.15H265.031C266.724 286.14 268.014 284.769 268.014 283.157V105.1C268.175 89.9463 260.679 75.7598 255.923 71.6489Z" fill="#F1F3FA" stroke="#AAB2C5" stroke-width="2" stroke-miterlimit="10"/>
<path opacity="0.3" d="M268.175 105.1V283.157C268.175 284.85 266.804 286.22 265.112 286.22H257.374C257.857 286.22 258.26 284.85 258.26 283.157V105.1C258.26 89.9462 256.084 75.7596 254.714 71.6488C254.552 71.2457 254.391 71.0039 254.23 71.0039C254.875 71.0039 255.439 71.2457 255.923 71.6488C260.678 75.7596 268.175 89.9462 268.175 105.1Z" fill="#AAB2C5"/>
<path d="M254.23 71.0039C254.069 71.0039 253.988 71.2457 253.908 71.6488C252.94 75.7596 251.409 89.9462 251.409 105.1V283.157C251.409 284.85 251.651 286.22 252.054 286.22H246.814C245.686 286.22 244.799 284.85 244.799 283.157V105.1C244.799 89.9462 249.877 75.7596 253.102 71.6488C253.424 71.2457 253.827 71.0039 254.23 71.0039Z" fill="white"/>
<path d="M251.409 107.518H268.175" stroke="#AAB2C5" stroke-width="2" stroke-miterlimit="10" stroke-linecap="round" stroke-linejoin="round"/>
<path d="M240.285 107.518H246.008" stroke="#AAB2C5" stroke-width="2" stroke-miterlimit="10" stroke-linecap="round" stroke-linejoin="round"/>
<path d="M252.86 144.355H268.175" stroke="#AAB2C5" stroke-width="2" stroke-miterlimit="10" stroke-linecap="round" stroke-linejoin="round"/>
<path d="M240.285 144.355H246.25" stroke="#AAB2C5" stroke-width="2" stroke-miterlimit="10" stroke-linecap="round" stroke-linejoin="round"/>
<path d="M240.285 172.244H268.175" stroke="#AAB2C5" stroke-width="2" stroke-miterlimit="10" stroke-linecap="round" stroke-linejoin="round"/>
<path d="M255.923 71.6489C254.956 70.7622 253.424 70.7622 252.457 71.6489C247.701 75.6791 240.285 89.9463 240.285 105.1V283.157C240.285 284.85 241.656 286.14 243.268 286.14H254.15H265.031C266.724 286.14 268.014 284.769 268.014 283.157V105.1C268.175 89.9463 260.679 75.7598 255.923 71.6489Z" stroke="#AAB2C5" stroke-width="2" stroke-miterlimit="10"/>
<path d="M188.78 131.297L190.15 126.138L193.536 125.332L199.178 124.042L199.823 123.881L200.307 131.297L208.69 253.656L190.553 278.401L183.46 277.192L134.13 268.729C131.067 268.245 128.89 265.585 128.89 262.522V239.227C128.89 236.487 130.019 233.746 131.953 231.812L165.163 198.119C170.563 192.637 174.432 185.867 176.367 178.451L183.46 151.69L188.78 131.297Z" fill="white" stroke="#AAB2C5" stroke-width="2" stroke-miterlimit="10" stroke-linecap="round" stroke-linejoin="round"/>
<path d="M193.454 125.332V159.106L189.827 163.136L189.504 160.96C189.343 159.912 188.456 159.106 187.408 159.106C186.441 159.106 185.635 159.75 185.313 160.637L175.64 196.345C174.995 198.763 173.706 200.94 172.013 202.713L135.74 239.066C135.015 239.792 134.612 240.759 134.612 241.726V249.625C134.612 251.721 136.305 253.414 138.4 253.414H184.748L185.796 260.91C185.796 261.394 138.884 260.991 128.808 260.91V239.066C128.808 236.326 129.856 233.585 131.871 231.65L165.081 197.957C170.481 192.476 174.35 185.705 176.285 178.29L190.068 126.057L193.454 125.332Z" fill="#AAB2C5"/>
<path opacity="0.2" d="M208.688 253.656L190.552 278.321L183.378 277.112V151.609L188.779 131.297H200.305L208.688 253.656Z" fill="#99A8CC"/>
<path d="M161.212 233.263C161.292 233.182 161.292 233.101 161.373 233.021L161.212 233.263Z" fill="white"/>
<path d="M161.212 233.263C161.292 233.182 161.292 233.101 161.373 233.021" stroke="#AAB2C5" stroke-width="2" stroke-miterlimit="10" stroke-linecap="round" stroke-linejoin="round"/>
<path d="M172.335 243.58C171.045 244.708 169.353 245.353 167.499 245.353C163.307 245.353 159.841 241.968 159.841 237.696C159.841 237.535 159.841 237.373 159.841 237.293" fill="white"/>
<path d="M172.335 243.58C171.045 244.708 169.353 245.353 167.499 245.353C163.307 245.353 159.841 241.968 159.841 237.696C159.841 237.535 159.841 237.373 159.841 237.293" stroke="#AAB2C5" stroke-width="2" stroke-miterlimit="10" stroke-linecap="round" stroke-linejoin="round"/>
<path d="M166.37 230.119C166.693 230.038 167.096 230.038 167.418 230.038C171.61 230.038 175.076 233.424 175.076 237.696C175.076 238.502 174.995 239.227 174.753 239.953" fill="white"/>
<path d="M166.37 230.119C166.693 230.038 167.096 230.038 167.418 230.038C171.61 230.038 175.076 233.424 175.076 237.696C175.076 238.502 174.995 239.227 174.753 239.953" stroke="#AAB2C5" stroke-width="2" stroke-miterlimit="10" stroke-linecap="round" stroke-linejoin="round"/>
<path d="M288.729 239.147V262.442C288.729 265.505 286.553 268.165 283.49 268.648L246.492 275.016L227.066 278.321L208.93 253.656L217.797 123.881L218.441 124.042L224.084 125.413L227.469 126.219L239.802 172.728L241.333 178.451C243.268 185.867 247.137 192.637 252.537 198.119L285.747 231.812C287.681 233.746 288.729 236.406 288.729 239.147Z" fill="white" stroke="#AAB2C5" stroke-width="2" stroke-miterlimit="10" stroke-linecap="round" stroke-linejoin="round"/>
<path d="M258.019 228.426H242.704V239.308H258.019V228.426Z" stroke="#AAB2C5" stroke-width="2" stroke-miterlimit="10" stroke-linecap="round" stroke-linejoin="round"/>
<path d="M250.684 228.426H242.704V234.391H250.684V228.426Z" fill="#AAB2C5"/>
<path d="M224.084 125.332V159.106L227.711 163.136L228.033 160.96C228.195 159.912 229.081 159.106 230.129 159.106C231.096 159.106 231.902 159.75 232.225 160.637L241.978 196.345C242.623 198.763 243.913 200.94 245.605 202.713L281.878 239.066C282.603 239.792 283.006 240.759 283.006 241.726V249.625C283.006 251.721 281.314 253.414 279.218 253.414H232.95L231.902 260.91C231.902 261.394 278.815 260.991 288.89 260.91V239.066C288.89 236.326 287.843 233.585 285.827 231.65L252.457 198.038C247.056 192.557 243.187 185.786 241.253 178.37L227.469 126.138L224.084 125.332Z" fill="#AAB2C5"/>
<path opacity="0.3" d="M246.492 252.527V275.016L227.066 278.321L208.93 253.656L217.797 123.881L218.441 124.042L224.084 125.413L227.469 126.219L239.802 172.728V242.935C243.671 244.305 246.492 248.094 246.492 252.527Z" fill="#99A8CC"/>
<path d="M227.711 119.528V275.419H189.262V119.528C189.262 112.758 190.713 106.067 193.615 99.9413C194.179 98.8128 194.743 97.6037 195.388 96.4753V96.3947L203.449 83.0142C205.706 79.2257 211.187 79.2257 213.524 83.0142L221.585 96.3947V96.4753C222.23 97.6037 222.794 98.7322 223.358 99.8607C226.26 106.067 227.711 112.758 227.711 119.528Z" fill="white" stroke="#AAB2C5" stroke-width="2" stroke-miterlimit="10" stroke-linecap="round" stroke-linejoin="round"/>
<path opacity="0.3" d="M227.711 119.528V275.419H216.184V119.528C216.184 112.758 215.62 106.067 214.411 99.9414C214.169 98.8129 214.008 97.6844 213.686 96.556V96.4753L210.461 83.0949C209.978 81.1603 209.252 80.2737 208.446 80.2737C210.381 80.2737 212.315 81.2409 213.444 83.0949L221.504 96.4753V96.556C222.149 97.6844 222.713 98.8129 223.278 99.9414C226.26 106.067 227.711 112.758 227.711 119.528Z" fill="#99A8CC"/>
<path d="M223.358 99.9413C221.988 97.8456 219.65 96.4753 217.071 96.4753H200.063C197.484 96.4753 195.066 97.8456 193.696 99.9413C194.26 98.8128 194.824 97.6037 195.469 96.4753V96.3947L203.529 83.0142C205.786 79.2257 211.267 79.2257 213.605 83.0142L221.666 96.3947V96.4753C222.23 97.6037 222.875 98.7322 223.358 99.9413Z" fill="#AAB2C5"/>
<path d="M217.152 117.03C217.152 117.674 216.426 117.916 216.023 117.433C215.137 116.304 213.766 115.659 212.154 115.659H204.738C203.288 115.659 201.917 116.304 201.031 117.352C200.95 117.433 200.95 117.433 200.869 117.513C200.466 117.997 199.741 117.674 199.741 117.11C199.741 116.627 199.741 115.982 199.741 115.176C199.741 112.435 201.998 110.259 204.738 110.259H212.154C212.315 110.259 212.477 110.259 212.638 110.259C213.363 110.339 214.008 110.581 214.653 110.904C216.104 111.79 217.152 113.402 217.152 115.176C217.152 115.982 217.152 116.546 217.152 117.03Z" fill="#AAB2C5"/>
<path d="M208.527 163.458H227.711" stroke="#AAB2C5" stroke-width="2" stroke-miterlimit="10" stroke-linecap="round" stroke-linejoin="round"/>
<path d="M204.335 163.458H205.142" stroke="#AAB2C5" stroke-width="2" stroke-miterlimit="10" stroke-linecap="round" stroke-linejoin="round"/>
<path d="M189.343 163.458H198.29" stroke="#AAB2C5" stroke-width="2" stroke-miterlimit="10" stroke-linecap="round" stroke-linejoin="round"/>
<path d="M202.643 206.34H227.711" stroke="#AAB2C5" stroke-width="2" stroke-miterlimit="10" stroke-linecap="round" stroke-linejoin="round"/>
<path d="M196.033 206.34H198.29" stroke="#AAB2C5" stroke-width="2" stroke-miterlimit="10" stroke-linecap="round" stroke-linejoin="round"/>
<path d="M198.451 242.21H193.776C188.053 242.21 183.459 246.804 183.459 252.527V278.482H208.769V252.527C208.688 246.804 204.094 242.21 198.451 242.21Z" fill="white" stroke="#AAB2C5" stroke-width="2" stroke-miterlimit="10" stroke-linecap="round" stroke-linejoin="round"/>
<path opacity="0.3" d="M208.688 252.527V278.482H198.613V244.789C198.613 243.338 197.484 242.21 196.033 242.21H198.371C204.094 242.21 208.688 246.804 208.688 252.527Z" fill="#99A8CC"/>
<path d="M223.52 242.21H218.845C213.122 242.21 208.527 246.804 208.527 252.527V278.482H233.837V252.527C233.837 246.804 229.243 242.21 223.52 242.21Z" fill="#F1F3FA" stroke="#AAB2C5" stroke-width="2" stroke-miterlimit="10"/>
<path d="M220.86 242.29C220.134 242.451 219.651 243.096 219.651 243.822V278.563H217.313V246.159C217.313 244.064 218.844 242.451 220.86 242.29Z" fill="white"/>
<path opacity="0.3" d="M233.837 252.527V278.482H225.051V245.595C225.051 243.741 223.519 242.21 221.666 242.21H223.519C229.242 242.21 233.837 246.804 233.837 252.527Z" fill="#AAB2C5"/>
<path opacity="0.1" d="M208.446 252.527V278.482H217.232V245.595C217.232 243.741 218.764 242.21 220.618 242.21H218.764C213.121 242.21 208.446 246.804 208.446 252.527Z" fill="#AAB2C5"/>
<path d="M223.52 242.21H218.845C213.122 242.21 208.527 246.804 208.527 252.527V278.482H233.837V252.527C233.837 246.804 229.243 242.21 223.52 242.21Z" stroke="#AAB2C5" stroke-width="2" stroke-miterlimit="10"/>
<path d="M221.827 278.321H195.227L189.746 282.029C188.617 282.835 187.973 284.044 187.973 285.414V289.041H229.887V285.575C229.887 284.124 229.162 282.835 227.953 282.109L221.827 278.321Z" fill="#D6DCE8" stroke="#AAB2C5" stroke-width="2" stroke-miterlimit="10" stroke-linecap="round" stroke-linejoin="round"/>
<path opacity="0.3" d="M229.888 285.656V289.122H217.313V285.656C217.313 284.205 216.991 282.915 216.507 282.109L214.089 278.321H221.827L227.953 282.109C229.162 282.835 229.888 284.205 229.888 285.656Z" fill="#AAB2C5"/>
<path d="M231.661 290.734C231.661 291.621 230.935 292.346 230.049 292.346H187.489C186.602 292.346 185.877 291.621 185.877 290.734C185.877 289.848 186.602 289.122 187.489 289.122H230.049C230.935 289.122 231.661 289.848 231.661 290.734Z" fill="#AAB2C5" stroke="#AAB2C5" stroke-width="2" stroke-miterlimit="10" stroke-linecap="round" stroke-linejoin="round"/>
<path d="M205.948 138.874H204.174C203.288 138.874 202.562 138.148 202.562 137.262V135.488C202.562 134.602 203.288 133.876 204.174 133.876H205.948C206.834 133.876 207.56 134.602 207.56 135.488V137.262C207.56 138.148 206.834 138.874 205.948 138.874Z" fill="#AAB2C5"/>
<path d="M213.444 138.874H211.671C210.784 138.874 210.059 138.148 210.059 137.262V135.488C210.059 134.602 210.784 133.876 211.671 133.876H213.444C214.331 133.876 215.056 134.602 215.056 135.488V137.262C215.056 138.148 214.331 138.874 213.444 138.874Z" fill="#AAB2C5"/>
<path d="M211.106 295.57H205.867V235.922C205.867 234.472 207.076 233.343 208.446 233.343C209.897 233.343 211.026 234.552 211.026 235.922V295.57H211.106Z" fill="white" stroke="#AAB2C5" stroke-width="2" stroke-miterlimit="10" stroke-linecap="round" stroke-linejoin="round"/>
<path d="M169.917 334.341C173.141 331.681 177.333 330.069 181.927 330.069C189.343 330.069 195.711 334.341 198.774 340.548" stroke="#AAB2C5" stroke-width="2" stroke-miterlimit="10" stroke-linecap="round" stroke-linejoin="round"/>
<path opacity="0.3" d="M209.494 110.178L206.592 115.659H204.738C203.287 115.659 201.917 116.304 201.031 117.352L204.819 110.178H209.494Z" fill="white"/>
<path opacity="0.3" d="M214.653 110.823L212.154 115.659H209.736L212.638 110.178C213.363 110.259 214.008 110.501 214.653 110.823Z" fill="white"/>
<path d="M60.5354 382.705C60.2935 380.448 60.1323 378.191 60.1323 375.934C60.1323 342.966 86.8127 316.286 119.78 316.286C147.267 316.286 170.4 334.825 177.332 360.135" stroke="#AAB2C5" stroke-width="2" stroke-miterlimit="10" stroke-linecap="round" stroke-linejoin="round"/>
<path d="M67.1453 403.984C64.566 399.148 62.6314 393.828 61.4224 388.347" stroke="#AAB2C5" stroke-width="2" stroke-miterlimit="10" stroke-linecap="round" stroke-linejoin="round"/>
<path d="M177.816 359.893C178.461 349.092 187.489 340.468 198.451 340.468C202.562 340.468 206.351 341.677 209.575 343.692" stroke="#AAB2C5" stroke-width="2" stroke-miterlimit="10" stroke-linecap="round" stroke-linejoin="round"/>
<path d="M218.441 329.102C221.746 326.845 225.777 325.556 230.049 325.556C236.9 325.556 242.865 328.861 246.653 333.939" stroke="#AAB2C5" stroke-width="2" stroke-miterlimit="10" stroke-linecap="round" stroke-linejoin="round"/>
<path d="M339.994 362.715C342.815 368.518 344.347 374.967 344.347 381.818C344.347 385.365 343.944 388.831 343.138 392.136" stroke="#AAB2C5" stroke-width="2" stroke-miterlimit="10" stroke-linecap="round" stroke-linejoin="round"/>
<path d="M263.983 356.669C271.963 345.223 285.183 337.727 300.175 337.727C314.442 337.727 327.178 344.498 335.239 355.057" stroke="#AAB2C5" stroke-width="2" stroke-miterlimit="10" stroke-linecap="round" stroke-linejoin="round"/>
<path d="M344.347 378.755C344.75 378.755 345.153 378.755 345.556 378.755C356.276 378.755 364.982 387.461 364.982 398.181C364.982 402.05 363.853 405.597 361.919 408.579" stroke="#AAB2C5" stroke-width="2" stroke-miterlimit="10" stroke-linecap="round" stroke-linejoin="round"/>
<path opacity="0.3" d="M344.347 381.899C344.347 412.69 313.556 433.97 284.78 423.249C312.347 429.295 338.463 408.337 338.463 380.125C338.463 361.183 326.533 344.982 309.687 338.775C329.515 343.128 344.347 360.78 344.347 381.899Z" fill="#99A8CC"/>
<path d="M320.004 421.315C319.279 421.718 318.553 422.04 317.828 422.363" stroke="#AAB2C5" stroke-width="2" stroke-miterlimit="10" stroke-linecap="round" stroke-linejoin="round"/>
<path d="M343.218 391.652C340.8 402.211 334.674 411.32 326.211 417.526" stroke="#AAB2C5" stroke-width="2" stroke-miterlimit="10" stroke-linecap="round" stroke-linejoin="round"/>
<path d="M129.776 390.443C134.934 391.249 139.045 395.118 140.254 400.116" stroke="#AAB2C5" stroke-width="2" stroke-miterlimit="10" stroke-linecap="round" stroke-linejoin="round"/>
<path d="M135.015 392.216C139.126 385.768 146.38 381.415 154.602 381.415C159.277 381.415 163.63 382.785 167.257 385.203" stroke="#AAB2C5" stroke-width="2" stroke-miterlimit="10" stroke-linecap="round" stroke-linejoin="round"/>
<path d="M163.307 383.108C163.227 382.543 163.227 381.979 163.227 381.415C163.227 368.599 173.625 358.281 186.361 358.281C199.096 358.281 209.494 368.679 209.494 381.415C209.494 383.108 209.333 384.72 209.011 386.332" stroke="#AAB2C5" stroke-width="2" stroke-miterlimit="10" stroke-linecap="round" stroke-linejoin="round"/>
<path d="M209.01 386.332C210.784 388.025 212.315 390.04 213.363 392.297" stroke="#AAB2C5" stroke-width="2" stroke-miterlimit="10" stroke-linecap="round" stroke-linejoin="round"/>
<path d="M210.784 398.665C214.653 385.203 226.986 375.37 241.736 375.37C257.051 375.37 269.868 386.09 273.092 400.357" stroke="#AAB2C5" stroke-width="2" stroke-miterlimit="10" stroke-linecap="round" stroke-linejoin="round"/>
<path opacity="0.3" d="M231.58 438C218.764 433.728 209.494 421.718 209.494 407.451C209.494 392.539 219.65 380.045 233.353 376.337C206.995 387.863 205.948 425.023 231.58 438Z" fill="#99A8CC"/>
<path d="M209.575 405.919C209.575 405.355 209.655 404.871 209.655 404.387" stroke="#AAB2C5" stroke-width="2" stroke-miterlimit="10" stroke-linecap="round" stroke-linejoin="round"/>
<path d="M262.533 425.99C262.452 425.184 262.371 424.458 262.371 423.652C262.371 414.786 269.545 407.531 278.492 407.531C287.359 407.531 294.613 414.705 294.613 423.652" stroke="#AAB2C5" stroke-width="2" stroke-miterlimit="10" stroke-linecap="round" stroke-linejoin="round"/>
<path d="M386.423 381.979C387.551 380.206 389.566 378.997 391.823 378.997C395.289 378.997 398.111 381.818 398.111 385.284" stroke="#AAB2C5" stroke-width="2" stroke-miterlimit="10" stroke-linecap="round" stroke-linejoin="round"/>
<path d="M385.617 386.493C385.617 386.412 385.617 386.332 385.536 386.251" stroke="#AAB2C5" stroke-width="2" stroke-miterlimit="10" stroke-linecap="round" stroke-linejoin="round"/>
<path d="M396.498 389.476C395.37 390.765 393.677 391.571 391.743 391.571C389.566 391.571 387.712 390.523 386.584 388.911" stroke="#AAB2C5" stroke-width="2" stroke-miterlimit="10" stroke-linecap="round" stroke-linejoin="round"/>
<path d="M152.023 403.501C153.151 401.728 155.166 400.519 157.423 400.519C160.889 400.519 163.71 403.34 163.71 406.806" stroke="#AAB2C5" stroke-width="2" stroke-miterlimit="10" stroke-linecap="round" stroke-linejoin="round"/>
<path d="M151.217 408.096C151.217 408.015 151.217 407.934 151.136 407.854" stroke="#AAB2C5" stroke-width="2" stroke-miterlimit="10" stroke-linecap="round" stroke-linejoin="round"/>
<path d="M162.098 410.997C160.97 412.287 159.277 413.093 157.343 413.093C155.166 413.093 153.312 412.045 152.184 410.433" stroke="#AAB2C5" stroke-width="2" stroke-miterlimit="10" stroke-linecap="round" stroke-linejoin="round"/>
<path d="M44.6562 409.708C52.475 406.08 61.1803 403.985 70.2887 403.985C71.9814 403.985 73.6742 404.065 75.2863 404.226" stroke="#AAB2C5" stroke-width="2" stroke-miterlimit="10" stroke-linecap="round" stroke-linejoin="round"/>
<path d="M34.9031 415.43C36.354 414.382 37.8049 413.415 39.3364 412.529" stroke="#AAB2C5" stroke-width="2" stroke-miterlimit="10" stroke-linecap="round" stroke-linejoin="round"/>
<path d="M389.083 414.221C381.264 410.594 372.559 408.498 363.45 408.498C361.758 408.498 360.065 408.579 358.453 408.74" stroke="#AAB2C5" stroke-width="2" stroke-miterlimit="10" stroke-linecap="round" stroke-linejoin="round"/>
<path d="M295.016 206.26C295.016 199.811 300.256 194.572 306.704 194.572C307.994 194.572 309.203 194.814 310.412 195.136" stroke="#AAB2C5" stroke-width="2" stroke-miterlimit="10" stroke-linecap="round" stroke-linejoin="round"/>
<path d="M372.962 207.469H393.597" stroke="#AAB2C5" stroke-width="2" stroke-miterlimit="10" stroke-linecap="round" stroke-linejoin="round"/>
<path d="M338.06 199.408C342.493 199.408 346.04 202.955 346.04 207.388H363.45" stroke="#AAB2C5" stroke-width="2" stroke-miterlimit="10" stroke-linecap="round" stroke-linejoin="round"/>
<path d="M310.493 195.136C312.266 189.574 317.505 185.544 323.712 185.544C331.369 185.544 337.576 191.751 337.576 199.408" stroke="#AAB2C5" stroke-width="2" stroke-miterlimit="10" stroke-linecap="round" stroke-linejoin="round"/>
<path d="M122.118 223.026C122.118 220.043 119.7 217.545 116.637 217.545C116.073 217.545 115.428 217.625 114.944 217.787" stroke="#AAB2C5" stroke-width="2" stroke-miterlimit="10" stroke-linecap="round" stroke-linejoin="round"/>
<path d="M85.7649 223.509H76.0923" stroke="#AAB2C5" stroke-width="2" stroke-miterlimit="10" stroke-linecap="round" stroke-linejoin="round"/>
<path d="M102.047 219.802C99.9517 219.802 98.3396 221.494 98.3396 223.509H90.1985" stroke="#AAB2C5" stroke-width="2" stroke-miterlimit="10" stroke-linecap="round" stroke-linejoin="round"/>
<path d="M114.863 217.786C114.057 215.207 111.559 213.272 108.737 213.272C105.191 213.272 102.289 216.174 102.289 219.721" stroke="#AAB2C5" stroke-width="2" stroke-miterlimit="10" stroke-linecap="round" stroke-linejoin="round"/>
<path d="M16.364 266.552C16.364 263.086 19.1852 260.184 22.7318 260.184C23.4573 260.184 24.1021 260.265 24.747 260.507" stroke="#AAB2C5" stroke-width="2" stroke-miterlimit="10" stroke-linecap="round" stroke-linejoin="round"/>
<path d="M39.6589 262.844C42.0771 262.844 44.0116 264.779 44.0116 267.197H53.4424" stroke="#AAB2C5" stroke-width="2" stroke-miterlimit="10" stroke-linecap="round" stroke-linejoin="round"/>
<path d="M24.7468 260.587C25.7141 257.605 28.5353 255.348 31.9207 255.348C36.0316 255.348 39.417 258.734 39.417 262.844" stroke="#AAB2C5" stroke-width="2" stroke-miterlimit="10" stroke-linecap="round" stroke-linejoin="round"/>
<path opacity="0.3" d="M297.515 337.808C306.382 318.543 325.888 305.162 348.538 305.162C379.571 305.162 404.72 330.311 404.72 361.344C404.72 376.498 398.756 390.282 389.002 400.357" stroke="#AAB2C5" stroke-width="2" stroke-miterlimit="10" stroke-linecap="round" stroke-linejoin="round"/>
<path opacity="0.3" d="M5.88524 393.909C0.162259 373.435 6.36887 350.624 23.6184 336.034C41.0291 321.283 64.8077 318.946 84.153 328.135" stroke="#AAB2C5" stroke-width="2" stroke-miterlimit="10" stroke-linecap="round" stroke-linejoin="round"/>
<path d="M71.0142 291.943H77.7044V291.54C77.7044 288.074 80.5256 285.253 83.9916 285.253C85.6037 285.253 87.0546 285.898 88.1831 286.865V286.784C89.8758 281.626 94.7121 277.837 100.435 277.837C107.528 277.837 113.332 283.641 113.332 290.734C113.332 291.379 113.251 292.104 113.171 292.749L113.332 292.91H116.798" stroke="#AAB2C5" stroke-width="2" stroke-miterlimit="10" stroke-linecap="round" stroke-linejoin="round"/>
<path d="M374.493 247.852H368.125V247.449C368.125 244.144 365.465 241.484 362.161 241.484C360.629 241.484 359.259 242.048 358.13 243.016V242.935C356.518 238.018 351.924 234.391 346.362 234.391C339.591 234.391 334.029 239.872 334.029 246.723C334.029 247.368 334.11 248.013 334.191 248.658L334.029 248.819H330.725" stroke="#AAB2C5" stroke-width="2" stroke-miterlimit="10" stroke-linecap="round" stroke-linejoin="round"/>
<path d="M51.3464 66.8935C51.3464 66.9742 51.3464 67.055 51.3464 67.1358V66.7319C51.3464 66.7319 51.3464 66.8127 51.3464 66.8935Z" fill="#F1F3FA" stroke="#AAB2C5" stroke-width="2" stroke-miterlimit="10"/>
<path d="M346.424 107.264C355.71 97.978 355.71 82.9224 346.424 73.6364C337.138 64.3504 322.082 64.3504 312.796 73.6364C303.51 82.9224 303.51 97.978 312.796 107.264C322.082 116.55 337.138 116.55 346.424 107.264Z" fill="#F1F3FA" stroke="#AAB2C5" stroke-width="2" stroke-miterlimit="10"/>
<path d="M334.594 113.725C325.082 105.1 315.087 95.105 306.382 85.513C310.251 67.2156 333.062 60.2029 346.523 73.5834C359.823 86.9639 352.891 109.856 334.594 113.725Z" fill="#F1F3FA" stroke="#AAB2C5" stroke-width="2" stroke-miterlimit="10"/>
<path d="M315.248 71.4877C298.805 56.8981 285.747 48.1928 283.167 50.7721C280.507 53.4321 290.261 67.8604 306.301 85.513C332.74 114.773 365.062 141.131 369.334 136.859C373.768 132.425 345.072 97.8456 315.248 71.4877ZM340.881 111.387C312.105 89.5433 287.762 53.1097 313.878 72.5356C332.256 86.1579 355.954 113.644 352.569 117.03C351.359 118.239 346.926 115.982 340.881 111.387Z" fill="#F1F3FA" stroke="#AAB2C5" stroke-width="2" stroke-miterlimit="10"/>
<path opacity="0.3" d="M294.21 60.203C291.228 63.1854 303.48 80.2737 321.616 98.4099C339.752 116.546 356.841 128.798 359.823 125.816C366.836 118.803 301.304 53.1097 294.21 60.203ZM302.996 67.4574C305.173 65.2811 318.07 74.5507 331.772 88.2536C345.475 101.957 354.745 114.773 352.569 117.03C347.329 122.269 297.757 72.6968 302.996 67.4574Z" fill="#AAB2C5"/>
<path d="M340.881 111.387C330.322 103.407 316.619 89.7045 308.639 79.1452C315.974 65.4423 334.916 62.0568 346.443 73.5834C357.889 85.0293 354.664 103.972 340.881 111.387Z" fill="#F1F3FA" stroke="#AAB2C5" stroke-width="2" stroke-miterlimit="10"/>
<path opacity="0.3" d="M346.362 107.357C344.669 108.969 342.815 110.34 340.881 111.387C330.322 103.407 316.619 89.7046 308.639 79.1453C309.606 77.2913 310.976 75.6792 312.508 74.0671C310.815 80.6768 341.687 110.904 346.362 107.357Z" fill="#AAB2C5"/>
<path opacity="0.3" d="M345.878 97.6844C347.704 97.6844 349.183 95.2665 349.183 92.2839C349.183 89.3012 347.704 86.8833 345.878 86.8833C344.053 86.8833 342.574 89.3012 342.574 92.2839C342.574 95.2665 344.053 97.6844 345.878 97.6844Z" fill="#AAB2C5"/>
<path opacity="0.3" d="M337.657 81.3215C339.126 81.3215 340.317 79.8779 340.317 78.0973C340.317 76.3166 339.126 74.873 337.657 74.873C336.188 74.873 334.997 76.3166 334.997 78.0973C334.997 79.8779 336.188 81.3215 337.657 81.3215Z" fill="#AAB2C5"/>
<path opacity="0.3" d="M321.271 78.8014C322.633 78.5809 323.593 77.5115 323.415 76.4129C323.238 75.3144 321.989 74.6026 320.627 74.8231C319.265 75.0436 318.305 76.113 318.482 77.2115C318.66 78.3101 319.909 79.0219 321.271 78.8014Z" fill="#AAB2C5"/>
<path opacity="0.3" d="M330.117 87.734C332.314 87.3784 333.853 85.5939 333.554 83.7483C333.255 81.9027 331.232 80.6949 329.035 81.0505C326.838 81.4062 325.299 83.1907 325.598 85.0363C325.896 86.8819 327.92 88.0897 330.117 87.734Z" fill="#AAB2C5"/>
<path d="M115.106 131.216C115.106 156.929 89.1507 174.662 65.2109 165.232C58.9237 162.733 53.5231 158.622 49.4929 153.302C31.3567 129.443 48.2032 94.6213 78.5914 94.6213C82.7829 94.6213 86.7325 95.3468 90.4404 96.5559C104.869 101.634 115.106 115.337 115.106 131.216Z" fill="#F1F3FA" stroke="#AAB2C5" stroke-width="2" stroke-miterlimit="10"/>
<path opacity="0.5" d="M73.9966 134.682C73.9966 139.841 69.8051 144.032 64.6464 144.032C63.1955 144.032 61.8252 143.71 60.5355 143.065C57.3919 141.534 55.2961 138.39 55.2961 134.682C55.2961 129.524 59.4876 125.332 64.6464 125.332C67.3063 125.332 69.8051 126.461 71.4978 128.314C73.0293 129.927 73.9966 132.183 73.9966 134.682Z" fill="#AAB2C5"/>
<path d="M73.9965 134.682C73.9965 139.841 69.805 144.032 64.6463 144.032C63.1954 144.032 61.8251 143.71 60.5354 143.065C59.0039 141.372 58.0366 139.196 58.0366 136.697C58.0366 131.539 62.2281 127.347 67.3868 127.347C68.8377 127.347 70.208 127.67 71.4977 128.314C73.0292 129.927 73.9965 132.183 73.9965 134.682Z" fill="#DCDFEA"/>
<path opacity="0.5" d="M88.1023 118.964C88.1023 122.511 85.2811 125.332 81.7345 125.332C81.0897 125.332 80.5254 125.251 79.9612 125.09C77.3012 124.365 75.3667 121.866 75.3667 118.964C75.3667 115.418 78.1879 112.596 81.7345 112.596C83.5078 112.596 85.0393 113.322 86.1678 114.37C87.3769 115.579 88.1023 117.191 88.1023 118.964Z" fill="#AAB2C5"/>
<path d="M88.1025 118.964C88.1025 122.511 85.2813 125.332 81.7347 125.332C81.0899 125.332 80.5256 125.251 79.9614 125.09C78.7523 123.962 78.0269 122.35 78.0269 120.576C78.0269 117.03 80.848 114.208 84.3947 114.208C85.0395 114.208 85.6038 114.289 86.168 114.45C87.3771 115.579 88.1025 117.191 88.1025 118.964Z" fill="#DCDFEA"/>
<path opacity="0.5" d="M93.3416 145.08C93.3416 148.627 90.5204 151.448 86.9738 151.448C86.6514 151.448 86.2483 151.448 85.9259 151.367C82.8629 150.884 80.606 148.224 80.606 145.08C80.606 141.534 83.4271 138.712 86.9738 138.712C88.2635 138.712 89.4725 139.115 90.5204 139.76C92.2131 140.889 93.3416 142.823 93.3416 145.08Z" fill="#AAB2C5"/>
<path d="M93.3419 145.08C93.3419 148.627 90.5207 151.448 86.974 151.448C86.6516 151.448 86.2486 151.448 85.9262 151.367C84.2335 150.239 83.105 148.304 83.105 146.048C83.105 142.501 85.9262 139.68 89.4728 139.68C89.7952 139.68 90.1176 139.68 90.5207 139.76C92.2134 140.889 93.3419 142.823 93.3419 145.08Z" fill="#DCDFEA"/>
<path opacity="0.5" d="M100.435 130.41C100.435 132.748 98.5811 134.601 96.2435 134.601C96.0017 134.601 95.7599 134.602 95.5181 134.521C93.5029 134.198 91.9714 132.425 91.9714 130.329C91.9714 127.992 93.906 126.138 96.1629 126.138C97.1302 126.138 98.0168 126.46 98.7423 127.025C99.7902 127.911 100.435 129.12 100.435 130.41Z" fill="#AAB2C5"/>
<path d="M100.435 130.41C100.435 132.748 98.5811 134.602 96.2436 134.602C96.0017 134.602 95.7599 134.602 95.5181 134.521C94.5508 133.715 93.906 132.506 93.906 131.216C93.906 128.879 95.7599 127.025 98.0975 127.025C98.3393 127.025 98.5811 127.025 98.8229 127.105C99.7902 127.911 100.435 129.12 100.435 130.41Z" fill="#DCDFEA"/>
<path opacity="0.3" d="M115.105 131.216C115.105 156.929 89.1505 174.662 65.2107 165.232C65.7749 164.748 66.5004 164.426 67.1452 164.103C79.639 157.977 91.1656 162.975 96.0825 154.269C98.3395 150.239 97.0498 145 99.1455 140.889C100.113 138.874 101.806 137.262 102.773 135.327C106.239 128.234 99.1455 112.919 100.516 108.647C101.08 106.954 102.773 105.906 104.546 105.584C111.075 112.193 115.105 121.221 115.105 131.216Z" fill="#AAB2C5"/>
<path d="M91.3266 102.198C89.3115 107.276 80.9285 105.745 77.2207 105.825C69.7244 105.906 68.6765 109.695 67.145 111.71C64.7268 114.853 60.2935 116.143 56.5857 114.853C59.8099 130.329 53.1197 128.959 51.9106 133.876C50.5403 139.68 60.8578 143.226 58.9233 148.949C57.7948 152.254 52.9585 153.06 49.4118 153.302C31.2756 129.443 48.1221 94.6213 78.5103 94.6213C82.7018 94.6213 86.6515 95.3468 90.3593 96.5559C91.4878 98.3292 92.052 100.425 91.3266 102.198Z" fill="white"/>
<path opacity="0.3" d="M62.1475 118.319C63.572 118.319 64.7269 117.165 64.7269 115.74C64.7269 114.315 63.572 113.161 62.1475 113.161C60.7229 113.161 59.5681 114.315 59.5681 115.74C59.5681 117.165 60.7229 118.319 62.1475 118.319Z" fill="#AAB2C5"/>
<path d="M115.106 131.216C115.106 156.929 89.1507 174.662 65.2109 165.232C58.9237 162.733 53.5231 158.622 49.4929 153.302C31.3567 129.443 48.2032 94.6213 78.5914 94.6213C82.7829 94.6213 86.7325 95.3468 90.4404 96.5559C104.869 101.634 115.106 115.337 115.106 131.216Z" stroke="#AAB2C5" stroke-width="2" stroke-miterlimit="10"/>
</svg>
