<svg width="161" height="106" viewBox="0 0 161 106" fill="none" xmlns="http://www.w3.org/2000/svg">
<path opacity="0.7" d="M80.5 105.904C124.959 105.904 161 102.47 161 98.233C161 93.9963 124.959 90.5618 80.5 90.5618C36.0411 90.5618 0 93.9963 0 98.233C0 102.47 36.0411 105.904 80.5 105.904Z" fill="#F1F3F9"/>
<path opacity="0.4" d="M135.397 42.041H25.6506L27.4246 94.589C27.5205 96.8424 29.3424 98.6164 31.5479 98.6164H129.452C131.705 98.6164 133.527 96.8424 133.575 94.589L135.397 42.041Z" fill="#D6DCE8"/>
<path d="M135.397 40.1233L134.63 62.1781L133.575 92.7192C133.48 94.9726 131.658 96.6986 129.452 96.6986H31.548C29.2946 96.6986 27.4726 94.9247 27.4247 92.7192L26.3699 62.1781L25.6028 40.1233H135.397Z" fill="#F1F3F9" stroke="#D6DCE8" stroke-width="2" stroke-miterlimit="10" stroke-linejoin="round"/>
<path opacity="0.5" d="M135.397 40.1233L134.63 62.1781H26.3698L25.6506 40.1233H135.397Z" fill="#D6DCE8"/>
<path d="M96.0342 27.0822H64.9657C60.5068 27.0822 56.9109 23.4863 56.9109 19.0274V9.05479C56.9109 4.59589 60.5068 1 64.9657 1H96.0342C100.493 1 104.089 4.59589 104.089 9.05479V19.0274C104.089 23.4863 100.493 27.0822 96.0342 27.0822ZM64.9657 6.75342C63.7191 6.75342 62.6643 7.80822 62.6643 9.05479V19.0274C62.6643 20.274 63.7191 21.3288 64.9657 21.3288H96.0342C97.2808 21.3288 98.3356 20.274 98.3356 19.0274V9.05479C98.3356 7.80822 97.2808 6.75342 96.0342 6.75342H64.9657Z" fill="#D6DCE8" stroke="#AAB2C5" stroke-width="2" stroke-miterlimit="10" stroke-linejoin="round"/>
<path d="M135.158 57.6711H25.8425C22.8699 57.6711 20.6165 55.0821 20.9521 52.1574L24.6918 20.3218C24.9316 18.3081 26.6096 16.8218 28.6233 16.8218H132.329C134.343 16.8218 136.069 18.356 136.26 20.3218L140 52.1574C140.384 55.0821 138.13 57.6711 135.158 57.6711Z" fill="#F1F3F9" stroke="#D6DCE8" stroke-width="2" stroke-miterlimit="10" stroke-linejoin="round"/>
<path d="M55.0411 66.4456H44.4931C43.5342 66.4456 42.7671 65.6784 42.7671 64.7195V54.1716C42.7671 53.2127 43.5342 52.4456 44.4931 52.4456H55.0411C56 52.4456 56.7671 53.2127 56.7671 54.1716V64.7195C56.7671 65.6784 56 66.4456 55.0411 66.4456ZM46.2191 62.9456H53.315V55.8497H46.2191V62.9456Z" fill="#D6DCE8" stroke="#AAB2C5" stroke-width="2" stroke-miterlimit="10" stroke-linejoin="round"/>
<path d="M116.507 66.4453H105.959C105 66.4453 104.233 65.6782 104.233 64.7193V54.1713C104.233 53.2124 105 52.4453 105.959 52.4453H116.507C117.466 52.4453 118.233 53.2124 118.233 54.1713V64.7193C118.233 65.6782 117.466 66.4453 116.507 66.4453ZM107.733 62.9453H114.829V55.8494H107.733V62.9453Z" fill="#D6DCE8" stroke="#AAB2C5" stroke-width="2" stroke-miterlimit="10" stroke-linejoin="round"/>
</svg>
